<?xml version="1.0" encoding="UTF-8" standalone="no"?>
<!-- Created with Inkscape (http://www.inkscape.org/) -->

<svg
   xmlns:dc="http://purl.org/dc/elements/1.1/"
   xmlns:cc="http://creativecommons.org/ns#"
   xmlns:rdf="http://www.w3.org/1999/02/22-rdf-syntax-ns#"
   xmlns:svg="http://www.w3.org/2000/svg"
   xmlns="http://www.w3.org/2000/svg"
   xmlns:sodipodi="http://sodipodi.sourceforge.net/DTD/sodipodi-0.dtd"
   xmlns:inkscape="http://www.inkscape.org/namespaces/inkscape"
   id="svg3039"
   version="1.1"
   inkscape:version="0.48.4 r9939"
   width="130"
   height="144"
   sodipodi:docname="logo3wa.png">
  <metadata
     id="metadata3045">
    <rdf:RDF>
      <cc:Work
         rdf:about="">
        <dc:format>image/svg+xml</dc:format>
        <dc:type
           rdf:resource="http://purl.org/dc/dcmitype/StillImage" />
        <dc:title></dc:title>
      </cc:Work>
    </rdf:RDF>
  </metadata>
  <defs
     id="defs3043" />
  <sodipodi:namedview
     pagecolor="#ffffff"
     bordercolor="#666666"
     borderopacity="1"
     objecttolerance="10"
     gridtolerance="10"
     guidetolerance="10"
     inkscape:pageopacity="0"
     inkscape:pageshadow="2"
     inkscape:window-width="1280"
     inkscape:window-height="1000"
     id="namedview3041"
     showgrid="false"
     inkscape:snap-global="true"
     inkscape:snap-to-guides="false"
     inkscape:snap-grids="false"
     inkscape:zoom="1.4253472"
     inkscape:cx="-25.487229"
     inkscape:cy="-322.20498"
     inkscape:window-x="900"
     inkscape:window-y="24"
     inkscape:window-maximized="1"
     inkscape:current-layer="svg3039"
     showguides="true"
     inkscape:guide-bbox="true" />
  <g
     id="g5940">
    <g
       transform="matrix(1.8955025,0,0,2.3914371,-124.71921,194.45158)"
       id="g3371">
      <path
         sodipodi:nodetypes="ccccccccc"
         inkscape:connector-curvature="0"
         id="path3387"
         d="m 0,30.080392 0,-113.91961 134.45675,0 134.45676,0 0,113.91961 0,113.919608 L 132.76994,173.85968 0,144 z"
         style="fill:#fbfafa" />
      <path
         sodipodi:nodetypes="ssscccssssssssssssssssssssssssssssscssssscssscsssssssssssssssssscssssssssssssssssssssscsscsssssssscscss"
         inkscape:connector-curvature="0"
         id="path3385"
         d="M 64.451377,137.13703 C 36.380686,129.12786 21.590195,125.78388 20.931727,125.28023 19.231908,123.98006 6.2425808,-17.138418 4.5315246,-52.194882 l -1.4286764,-29.271011 131.3539018,0 131.35391,0 -0.54384,8.702193 c -2.27427,36.390371 -15.56745,187.48367 -16.93556,190.07548 -1.20382,2.28061 -6.22046,3.3889 -20.52254,7.40729 -11.21787,3.15184 -30.89295,10.32851 -48.09583,15.17787 -22.69019,6.39616 -42.00093,13.20598 -49.323,13.14552 -7.46951,-0.0617 -28.16843,-5.12883 -65.938513,-15.90543 z M 62.056964,87.924688 c 0,-0.383751 -0.930855,-1.137772 -2.068566,-1.675599 -1.137711,-0.537828 -2.068565,-0.223852 -2.068565,0.697726 0,0.921578 0.930854,1.675599 2.068565,1.675599 1.137711,0 2.068566,-0.313975 2.068566,-0.697726 z m 8.274262,0 c 0,-0.383751 -0.930855,-1.137772 -2.068566,-1.675599 -1.137711,-0.537828 -2.068565,-0.223852 -2.068565,0.697726 0,0.921578 0.930854,1.675599 2.068565,1.675599 1.137711,0 2.068566,-0.313975 2.068566,-0.697726 z m 37.234174,0 c 0,-0.383751 -0.93085,-1.137772 -2.06856,-1.675599 -1.13771,-0.537828 -2.06857,-0.223852 -2.06857,0.697726 0,0.921578 0.93086,1.675599 2.06857,1.675599 1.13771,0 2.06856,-0.313975 2.06856,-0.697726 z m 8.27427,0 c 0,-0.383751 -0.93086,-1.137772 -2.06857,-1.675599 -1.13771,-0.537828 -2.06857,-0.223852 -2.06857,0.697726 0,0.921578 0.93086,1.675599 2.06857,1.675599 1.13771,0 2.06857,-0.313975 2.06857,-0.697726 z m 38.15927,-8.930712 c -0.66603,-0.824288 -2.09268,-1.081888 -3.17034,-0.572446 -1.07765,0.509426 -1.41444,1.600649 -0.74841,2.424937 0.66603,0.824287 2.09268,1.081888 3.17033,0.572446 1.07766,-0.509426 1.41444,-1.60065 0.74842,-2.424937 z m 52.85761,-2.238188 c 0,-2.175548 -0.93086,-3.955542 -2.06857,-3.955542 -2.31093,0 -2.83539,5.214923 -0.68952,6.856267 2.28026,1.744141 2.75809,1.241613 2.75809,-2.900725 z m -33.12873,-5.235583 c -0.0174,-1.471526 -0.93402,-3.743498 -2.03689,-5.048826 -1.48851,-1.761772 -2.01337,-0.820381 -2.03689,3.653365 -0.019,3.620073 0.79436,5.636209 2.03689,5.048827 1.13771,-0.537827 2.05431,-2.181839 2.03689,-3.653366 z m 14.51164,-1.186662 c 0,-3.351189 -0.83753,-5.235217 -2.06857,-4.653273 -1.13771,0.537826 -2.06856,3.071836 -2.06856,5.631137 0,2.5593 0.93085,4.653272 2.06856,4.653272 1.13771,0 2.06857,-2.534012 2.06857,-5.631136 z M 66.194095,69.72919 c 0,-1.689081 -0.930855,-3.511094 -2.068566,-4.04892 -1.173203,-0.554603 -2.068565,0.774679 -2.068565,3.071056 0,2.226905 0.930854,4.04892 2.068565,4.04892 1.137711,0 2.068566,-1.381975 2.068566,-3.071056 z m 45.508435,0 c 0,-1.689081 -0.93085,-3.511094 -2.06856,-4.04892 -1.1732,-0.554603 -2.06857,0.774679 -2.06857,3.071056 0,2.226905 0.93086,4.04892 2.06857,4.04892 1.13771,0 2.06856,-1.381975 2.06856,-3.071056 z M 96.159998,37.725822 C 104.44196,32.742904 107.5654,25.548534 107.5654,11.455268 c 0,-10.0746576 -0.97549,-13.8952064 -5.2057,-20.3882682 l -5.205707,-7.9903738 4.125997,-6.95579 c 5.16656,-8.710033 5.75939,-27.773461 1.07899,-34.696376 -5.60791,-8.294801 -20.630356,-11.774364 -32.027754,-7.418404 -6.868974,2.625246 -12.404209,11.427773 -12.408179,19.732375 -0.0032,6.63071 0.09768,6.724422 7.236765,6.724422 6.996523,0 7.239979,-0.200982 7.239979,-5.976815 0,-6.456519 4.688884,-13.009787 9.308545,-13.009787 6.021457,0 9.308544,6.704658 9.308544,18.986602 0,13.233172 -2.738731,17.977984 -11.328852,19.627065 -8.255693,1.58488 -7.149053,8.19376 1.853807,11.0709816 9.627625,3.0768911 11.543611,6.5722296 11.543611,21.0590364 0,13.415629 -3.219979,19.442673 -10.387343,19.442673 -4.782817,0 -7.645871,-3.76986 -9.462535,-12.459571 -1.285965,-6.151196 -1.766201,-6.527031 -8.340135,-6.527031 -6.233498,0 -6.974373,0.462893 -6.964064,4.351096 0.05049,19.040965 21.595309,30.706313 38.228629,20.698719 z m 57.859272,-1.712117 c 0.56333,-1.957993 2.97984,-14.239951 5.37003,-27.2932399 4.27985,-23.3731361 6.23117,-28.2614461 10.07386,-25.2363581 1.05014,0.826708 3.86496,12.1830695 6.25514,25.2363581 5.90941,32.2724509 5.34942,30.8532279 12.17399,30.8532279 l 5.77971,0 7.72308,-43.9065165 c 4.2477,-24.1485845 8.27532,-48.0005025 8.95025,-53.0042635 l 1.22715,-9.097746 -6.31328,0 c -7.29818,0 -6.58035,-2.080377 -12.01075,34.80877 -1.8575,12.618179 -4.20984,23.6185409 -5.22742,24.4452492 -4.18364,3.3989103 -6.55928,-3.2288792 -10.82588,-30.2031142 -4.45688,-28.177237 -4.48505,-28.259797 -9.64135,-28.259797 -5.15135,0 -5.18946,0.110181 -9.8219,28.397901 -6.62542,40.4576162 -10.71458,41.9005932 -15.92551,5.619761 -5.32611,-37.082809 -4.61259,-35.065844 -12.20533,-34.501972 -3.58678,0.266371 -6.41269,1.196308 -6.27979,2.066527 0.13288,0.870219 4.28184,24.544138 9.21989,52.608709 l 8.97826,51.026492 5.7378,0 c 4.26779,0 6.00021,-0.912061 6.76205,-3.559988 z"
         style="fill:#f6d2cd" />
      <path
         sodipodi:nodetypes="ssscssssssssssssssssssssssssssssssssssccsssssscccccssssccsccsssssssssscssssssssssscssscssssssscsssssscssssssssssssssssssssssssscsssss"
         inkscape:connector-curvature="0"
         id="path3383"
         d="M 74.530327,125.63733 C 45.55278,117.3693 21.409559,110.27235 20.878726,109.86632 19.608458,108.89471 4.3136352,-56.182108 4.214095,-69.994821 l -0.076964,-10.679963 130.319619,0 c 128.74295,0 130.31963,0.03811 130.31963,3.150101 0,12.673832 -17.14868,186.206633 -18.50444,187.252003 -3.44496,2.65629 -106.81846,31.05115 -112.84947,30.99775 -3.41313,-0.0302 -29.9146,-6.81971 -58.892143,-15.08774 z m 16.07284,-31.002492 c 1.365253,-1.044263 2.482279,-2.960344 2.482279,-4.257951 0,-1.81493 -0.643525,-1.686137 -2.789039,0.558174 -4.917689,5.144119 -7.553789,1.300187 -7.553789,-11.01484 0,-12.315027 2.6361,-16.158952 7.553789,-11.014833 2.291472,2.396981 2.789039,2.474668 2.789039,0.435458 0,-4.112364 -5.613816,-6.797094 -9.308545,-4.451684 -4.065176,2.58057 -4.517832,29.361703 -0.517141,30.596465 4.04503,1.248448 4.697764,1.172818 7.343407,-0.850789 z m 45.922153,-1.265774 c 3.26278,-2.495646 4.13713,-5.274051 4.13713,-13.146434 0,-10.576459 -2.51102,-14.789912 -9.30854,-15.619606 -3.84098,-0.468823 -4.18029,0.505422 -4.73997,13.609764 -0.81527,19.08886 1.04696,21.936552 9.91138,15.156276 z m -8.27426,-13.448843 c 0,-10.811814 0.36774,-11.866626 4.13713,-11.866626 3.76939,0 4.13713,1.054812 4.13713,11.866626 0,10.81181 -0.36774,11.866626 -4.13713,11.866626 -3.76939,0 -4.13713,-1.054816 -4.13713,-11.866626 z m 31.02848,15.03106 c 0,-0.870219 -0.8981,-1.582217 -1.99578,-1.582217 -1.09769,0 -3.0282,-1.475528 -4.29004,-3.278938 -1.75622,-2.509998 -1.60897,-4.068386 0.62792,-6.645232 2.54061,-2.926721 2.49305,-3.955795 -0.36424,-7.881038 -3.1387,-4.311865 -3.06779,-4.652658 1.57775,-7.582789 4.03703,-2.546317 4.31768,-3.228411 1.65048,-4.011273 -1.76752,-0.518793 -4.1891,-0.482147 -5.38129,0.08144 -2.36763,1.119235 -3.08407,29.671685 -0.78858,31.427455 2.14587,1.64134 8.96378,1.2402 8.96378,-0.527408 z m -90.696589,-3.164434 4.457421,3.955542 -1.326327,-3.955542 c -0.729482,-2.175548 -1.339038,-5.288717 -1.354573,-6.918148 -0.02424,-2.542211 -0.500322,-2.66295 -3.35494,-0.850837 -2.814565,1.786687 -3.730819,1.689048 -5.951834,-0.634231 -2.427641,-2.539427 -2.719932,-2.47541 -3.885041,0.850821 -0.692945,1.978277 -1.272608,5.277721 -1.288143,7.332119 l -0.02825,3.735282 4.137131,-3.735282 4.137131,-3.735266 z M 112.49973,90.05413 c 2.9575,1.877411 3.33994,1.532314 3.33994,-3.013933 0,-4.537798 -0.38639,-4.888844 -3.3267,-3.022335 -2.81456,1.786687 -3.73082,1.689048 -5.95183,-0.634231 -2.42764,-2.539427 -2.71993,-2.47541 -3.88504,0.850821 -0.69295,1.978277 -1.27261,5.277721 -1.28815,7.332119 l -0.0282,3.735282 3.90004,-3.683955 c 3.34353,-3.158278 4.37663,-3.381419 7.23998,-1.563768 z m 95.03539,-6.736066 c 0.7071,-6.398264 1.89977,-12.984249 2.65039,-14.635506 1.26966,-2.793117 1.12919,-2.78182 -2.0164,0.162146 -3.38113,3.164433 -3.38113,3.164433 -6.74249,0 -3.28308,-3.090737 -3.32816,-3.072312 -1.93551,0.791108 0.78422,2.175548 1.95648,8.761526 2.60503,14.635506 0.64854,5.873979 1.84836,10.679963 2.66625,10.679963 0.8179,0 2.06563,-5.234954 2.77273,-11.633217 z m -36.75852,0.953254 c 1.33508,-4.785652 3.78084,-4.486566 6.46923,0.791108 l 2.2164,4.351096 1.60583,-5.377385 c 1.40602,-4.708266 1.9191,-5.049677 4.12349,-2.743801 2.21168,2.313517 2.67557,2.02962 3.81706,-2.335922 2.25174,-8.611612 1.5618,-14.067252 -1.77899,-14.067252 -1.99191,0 -3.54538,2.233716 -4.40151,6.328867 -0.74699,3.573073 -2.4799,6.328867 -3.97975,6.328867 -1.48739,0 -3.27191,-2.785493 -4.05458,-6.328867 -0.85944,-3.890956 -2.52312,-6.328867 -4.31895,-6.328867 -2.32243,0 -2.87185,2.999218 -2.68107,14.635505 0.13197,8.049528 0.63365,13.211511 1.11482,11.471072 0.48118,-1.740438 1.32178,-4.766428 1.86802,-6.724421 z M 68.230984,72.856753 c -0.01738,-2.206628 -0.844202,-4.993264 -1.837291,-6.192526 -2.815204,-3.399662 -6.405295,-0.541599 -6.405295,5.099241 0,4.050521 0.04244,5.105338 3.324804,5.105338 3.057762,0 4.941194,-1.046732 4.917782,-4.012053 z m 44.649606,-4.137195 c -1.97164,-6.00868 -7.38375,-4.842262 -7.38375,1.591348 0,3.896666 1.01826,5.578349 3.61999,5.978476 4.18672,0.643883 5.55557,-2.10919 3.76376,-7.569824 z M 99.706738,36.568919 c 3.072852,-2.630307 6.671502,-7.836251 7.996992,-11.568764 3.53806,-9.962984 1.24982,-28.1996224 -4.52436,-36.057879 l -4.713515,-6.414768 4.032635,-5.099015 c 6.0352,-7.631142 5.84246,-32.260114 -0.30207,-38.599826 -6.266597,-6.465649 -17.894484,-9.107963 -28.634951,-6.506986 -6.773063,1.640205 -9.317264,3.414745 -13.125125,9.15457 -3.12155,4.705307 -4.524617,9.266348 -4.137131,13.448843 0.558302,6.026263 0.942472,6.351673 8.034799,6.805858 l 7.448461,0.476989 1.860083,-8.22756 c 3.477712,-15.382694 14.548997,-14.133644 16.670857,1.880785 1.647401,12.433511 -1.135438,19.124652 -9.152304,22.006071 -5.371752,1.930715 -6.611563,3.312433 -6.647984,7.408908 -0.03434,3.861887 1.040051,5.2884472 4.609504,6.120459 10.404708,2.4252583 11.894251,4.9821349 11.894251,20.417076 0,14.952026 -1.585814,18.266712 -8.739174,18.266712 -4.238033,0 -7.809349,-5.758234 -7.809349,-12.591457 0,-6.150566 -11.09205,-9.0506772 -16.290781,-4.259364 -3.154539,2.907323 0.148151,15.967628 5.408821,21.388875 9.311424,9.59565 26.127995,10.503733 36.120341,1.950473 z m 54.141412,3.326521 c 0.56016,-0.69326 3.0882,-12.401849 5.61787,-26.019089 6.91337,-37.214799 8.65939,-37.396757 15.6164,-1.627427 2.66913,13.723294 5.29589,25.841441 5.83723,26.929215 0.54135,1.087774 3.76387,1.977771 7.16115,1.977771 5.3558,0 6.32849,-0.683548 7.3174,-5.142205 2.10645,-9.497364 17.66404,-98.856852 17.66404,-101.458534 0,-3.149986 -14.10286,-3.690635 -15.50625,-0.59445 -0.49305,1.087774 -2.71067,14.316977 -4.92805,29.398226 -5.69404,38.7273653 -8.03722,38.8158856 -13.70878,0.517888 -4.20488,-28.394045 -5.45204,-31.893885 -11.36536,-31.893885 -5.89147,0 -7.11512,3.41975 -11.45739,32.019961 -3.6526,24.057682 -5.41765,29.9641545 -8.2963,27.7623147 -0.74885,-0.5727862 -3.35931,-14.0801207 -5.80103,-30.0162987 l -4.43948,-28.974869 -7.75712,-0.491064 c -6.52786,-0.413247 -7.75712,-0.0028 -7.75712,2.58994 0,3.058308 15.37929,91.287022 17.63001,101.140771 1.00747,4.410743 2.02659,5.142205 7.16443,5.142205 3.29444,0 6.44819,-0.567212 7.00835,-1.26047 z"
         style="fill:#f6c4ba" />
      <path
         sodipodi:nodetypes="ssscsssssscssscssssssssssssssssssssssssssssssssssssssssssssssssssssssssssssssssssssssssssssssssscccssssssssscsssssssssssscssscccssssss"
         inkscape:connector-curvature="0"
         id="path3381"
         d="M 67.821737,136.263 C 38.691265,128.27728 24.800025,124.54121 23.974674,123.9247 22.7159,122.98443 4.1371309,-64.747957 4.1371309,-76.717979 l 0,-3.956805 129.0640291,0 c 101.39934,0 129.25406,0.423932 129.95061,1.977771 1.62982,3.635756 -15.67096,194.637433 -17.81279,196.275693 -0.72419,0.55392 -4.0231,1.59447 -18.07996,5.78663 -12.16559,3.62813 -24.76202,8.32518 -39.36224,12.25158 -12.1479,3.26691 -24.23292,6.68282 -35.70898,10.46852 -10.02703,3.3077 -20.91928,5.60343 -22.0203,5.56259 -1.95023,-0.0723 -33.053,-7.35478 -62.345763,-15.385 z M 59.988398,92.484573 c 0,-3.47651 5.301498,-2.71809 8.947737,1.280045 l 3.246655,3.559988 0.108497,-4.441868 c 0.05968,-2.443037 -0.953665,-9.563013 -2.251866,-15.822168 -4.056427,-19.557726 -8.375913,-18.591778 -12.874885,2.87916 -1.638846,7.821246 -2.540449,14.766054 -2.003563,15.432911 1.436308,1.784013 4.827425,-0.244769 4.827425,-2.888068 z m 2.068566,-10.982135 c 0,-1.305329 0.930854,-2.373325 2.068565,-2.373325 1.137711,0 2.068566,1.067996 2.068566,2.373325 0,1.305329 -0.930855,2.373325 -2.068566,2.373325 -1.137711,0 -2.068565,-1.067996 -2.068565,-2.373325 z m 31.006619,12.677876 c 1.4043,-1.294237 1.95809,-3.539514 1.230646,-4.989505 -1.211636,-2.415111 -1.551896,-2.39652 -4.054745,0.221574 -4.640121,4.853767 -7.496866,1.236692 -7.496866,-9.492162 0,-10.540875 2.847058,-14.356063 7.264691,-9.735024 3.456719,3.61588 5.561915,3.270405 4.773432,-0.78335 -0.920533,-4.73265 -6.853147,-7.373745 -11.520981,-5.128935 -2.878413,1.384256 -3.743731,4.412187 -4.224027,14.780761 -0.629355,13.586369 1.117819,17.479825 7.844016,17.479825 1.996809,0 4.779535,-1.05893 6.183834,-2.353184 z m 15.599907,-3.975683 c 1.39394,0 3.99543,1.601994 5.78109,3.559987 3.08615,3.383998 3.25269,3.403554 3.36882,0.395555 0.22127,-5.731185 -4.65441,-28.448755 -6.43499,-29.983009 -3.35127,-2.887644 -5.95579,1.703027 -8.92444,15.730052 -2.954459,13.95993 -2.18676,20.345634 1.65439,13.761235 1.11138,-1.9051 3.16119,-3.46382 4.55513,-3.46382 z m -1.09809,-9.586684 c 0,-1.791797 0.93086,-2.81777 2.06857,-2.279942 1.13771,0.537827 2.06856,2.003846 2.06856,3.257816 0,1.25397 -0.93085,2.279942 -2.06856,2.279942 -1.13771,0 -2.06857,-1.466018 -2.06857,-3.257816 z m 30.61477,14.016891 c 1.52593,-1.16717 2.48228,-6.883545 2.48228,-14.837333 0,-14.037526 -2.06749,-17.15749 -10.74611,-16.216463 -4.51805,0.489895 -4.79975,1.257296 -5.37096,14.631746 -0.33156,7.763099 -0.12807,15.061074 0.45222,16.217722 1.31469,2.620531 9.85069,2.752836 13.18257,0.204328 z m -8.63997,-5.283845 c -1.99836,-3.983262 -1.46,-17.068956 0.8111,-19.715181 3.57475,-4.165195 6.26509,1.401197 5.67466,11.741046 -0.51997,9.105895 -3.85862,13.210703 -6.48576,7.974135 z m 30.68158,5.714208 c 0.65252,-0.80758 -0.68883,-1.923549 -2.98077,-2.479951 -4.97665,-1.208165 -5.49911,-6.543463 -1.01213,-10.335816 2.82767,-2.389906 2.82767,-2.874413 0,-4.669406 -4.68907,-2.976625 -3.98472,-9.111772 1.19032,-10.368091 5.74566,-1.394846 1.98434,-4.358554 -4.62392,-3.643396 -4.67377,0.505803 -4.91984,1.161502 -5.49568,14.644247 -0.33156,7.763099 -0.12807,15.061074 0.45222,16.217722 1.19731,2.386537 10.66508,2.868433 12.46996,0.634691 z m 11.46915,-4.953953 c 0,-5.367892 3.11475,-6.232336 4.79093,-1.329632 1.21777,3.561887 5.5519,2.747124 5.5519,-1.043693 0,-1.25397 0.93086,-2.279943 2.06857,-2.279943 1.13771,0 2.06856,2.093969 2.06856,4.653268 0,2.559299 0.93086,5.093314 2.06857,5.631141 1.32915,0.62833 2.06856,-4.993919 2.06856,-15.728785 0,-13.225269 -0.60046,-16.706659 -2.88153,-16.706659 -3.16287,0 -5.39273,3.324696 -5.39273,8.040489 0,1.669265 -1.39628,3.035029 -3.10285,3.035029 -1.70656,0 -3.10285,-1.365764 -3.10285,-3.035029 0,-4.715793 -2.22986,-8.040489 -5.39272,-8.040489 -2.28107,0 -2.88154,3.48139 -2.88154,16.706659 0,10.734866 0.73941,16.357115 2.06857,15.728785 1.13771,-0.537827 2.06856,-3.071842 2.06856,-5.631141 z m 35.16562,0.425806 c 0,-3.298051 1.41895,-10.163353 3.15323,-15.256225 3.37284,-9.904685 2.47397,-13.090315 -2.28808,-8.109 -2.90325,3.036923 -2.96419,3.036923 -5.86744,0 -4.6226,-4.835441 -5.44702,-2.088384 -2.18606,7.284207 1.65116,4.745748 3.01316,11.654609 3.02666,15.35304 0.0135,3.698432 0.95541,6.724422 2.09312,6.724422 1.13771,0 2.06857,-2.698408 2.06857,-5.996444 z M 95.41929,40.259873 c 9.64309,-3.814207 14.11498,-13.069645 14.16925,-29.325983 0.0384,-11.51092796 -0.7501,-14.7531465 -5.11522,-21.032607 -4.767751,-6.858665 -4.919536,-7.705328 -1.9937,-11.120849 1.74183,-2.033341 4.11357,-8.192957 5.27055,-13.688034 4.19163,-19.908143 -5.03416,-32.873462 -24.393701,-34.281326 -16.213596,-1.179085 -26.363221,7.046077 -27.803631,22.531803 l -0.735853,7.911084 9.308544,0 9.308545,0 1.14536,-7.62575 c 1.157582,-7.707114 4.437291,-10.956879 9.544879,-9.457728 3.971949,1.165825 5.125168,6.051272 4.412175,18.691548 -0.611979,10.849449 -0.754703,11.100517 -8.479945,14.917178 -6.604328,3.262873 -7.759005,4.63737 -7.239979,8.618281 0.495177,3.7979931 1.88082,4.9848092 6.994417,5.9907747 8.49559,1.6712862 11.205899,6.76018114 11.205899,21.0402823 0,8.507799 -0.882669,12.354305 -3.250603,14.165504 -6.3264,4.838974 -10.163973,2.015101 -12.320918,-9.066329 l -1.478743,-7.597128 -8.540532,0.477152 c -8.061313,0.450378 -8.578281,0.779788 -9.21324,5.870647 -0.369987,2.96642 0.900666,8.544678 2.823673,12.396126 5.842692,11.701892 21.812845,16.348313 36.382773,10.585354 z m 57.25764,1.11715 c 1.65117,-0.800982 4.70773,-11.404089 7.84141,-27.201631 2.82451,-14.23894048 5.56297,-26.21597 6.08547,-26.615621 2.13683,-1.634436 3.18304,1.884082 7.26919,24.447308 2.35176,12.98609 5.13005,25.213066 6.17399,27.17106 2.10784,3.953425 10.40151,4.895581 13.92803,1.582216 1.66351,-1.562959 17.86571,-87.152128 19.69323,-104.030755 0.38699,-3.574219 -0.4054,-4.001927 -8.2196,-4.436705 l -8.64787,-0.481164 -1.21583,6.810031 c -0.66871,3.745517 -2.62564,16.386093 -4.34873,28.090168 -4.64697,31.5644834 -6.04502,30.8009625 -12.04864,-6.580158 l -4.3938,-27.357714 -7.23998,0 -7.23998,0 -4.48897,27.430504 c -6.10627,37.3133145 -7.32083,37.9745087 -11.95347,6.507368 -5.59382,-37.995994 -4.31855,-34.72898 -13.55642,-34.72898 -4.41399,0 -8.44013,0.533998 -8.94697,1.186663 -1.51806,1.954824 17.50185,105.448615 19.77284,107.590742 2.39777,2.261707 7.57451,2.538432 11.5361,0.616668 z"
         style="fill:#f2a197" />
      <path
         sodipodi:nodetypes="sssssscsssscsssssssssssssssscsssssssscssssssssccccsssssscccsssssscsssccssssssssssssssssssscccsssssssssssssssssssssssssssssssscs"
         inkscape:connector-curvature="0"
         id="path3379"
         d="M 75.819756,136.12486 C 45.775477,128.52168 26.937529,122.77352 26.013867,122.06608 23.329705,120.01024 4.5085505,-76.398046 6.805122,-78.697013 c 2.4980371,-2.500644 252.822448,-2.927666 254.836758,-0.43472 2.25145,2.786414 -16.00742,193.578393 -18.72547,195.616903 -2.18902,1.64175 -55.33213,17.34829 -93.33629,28.15555 l -18.88662,5.3708 z M 92.489387,95.725428 c 2.824109,-1.513011 4.935853,-1.803363 5.753762,-0.791108 2.265051,2.803245 6.726281,1.721009 8.082881,-1.96081 l 1.31172,-3.559988 3.91539,3.559988 c 4.29534,3.905449 8.42741,4.682175 8.41705,1.582217 -0.0208,-6.207116 -6.88095,-30.593254 -8.87102,-31.53401 -4.22233,-1.996 -7.18124,1.780723 -8.62789,11.012531 -0.78002,4.977718 -1.92639,10.685407 -2.547494,12.683731 -1.081264,3.478867 -1.298366,3.516271 -5.106891,0.879965 -3.803877,-2.633077 -4.029458,-2.601734 -5.16436,0.717773 -2.397024,7.011135 -4.841351,3.171791 -4.841351,-7.604387 0,-10.353051 2.142364,-14.16934 4.885178,-8.702193 2.036199,4.058671 5.457649,2.605722 5.457649,-2.317656 0,-5.655826 -8.859789,-9.473914 -14.849219,-7.022114 -3.144855,1.287361 -1.361022,4.558575 -2.238623,15.21826 -1.479852,17.974837 3.249644,23.824003 14.423218,17.837801 z m 47.809403,-2.047404 c 3.29388,-3.22546 2.60361,-26.12623 -0.86753,-28.781252 -1.23375,-0.943678 -4.95215,-1.865438 -8.26311,-2.048357 l -6.01994,-0.332578 -1.18064,15.822168 c -0.71185,9.539691 -0.36212,16.647863 0.88079,17.901659 2.59877,2.621528 11.69791,1.112916 15.45043,-2.56164 z m -9.97917,-13.757803 c 0,-5.801462 0.90169,-10.284409 2.06857,-10.284409 1.16688,0 2.06856,4.482947 2.06856,10.284409 0,5.801467 -0.90168,10.28441 -2.06856,10.28441 -1.16688,0 -2.06857,-4.482943 -2.06857,-10.28441 z m 30.88411,15.955233 c 1.93633,-1.784582 1.60596,-2.440506 -1.62418,-3.224669 -5.58643,-1.356181 -7.23804,-5.533566 -3.45273,-8.732871 1.73399,-1.46556 3.15272,-3.264509 3.15272,-3.997693 0,-0.733183 -1.41873,-2.532132 -3.15272,-3.997692 -3.78531,-3.199306 -2.1337,-7.376684 3.45273,-8.732873 5.94957,-1.44435 0.63509,-5.768533 -6.32864,-5.149367 -5.30518,0.471698 -5.35331,0.602737 -5.94499,16.185093 -0.32808,8.640249 -0.12459,16.650222 0.45222,17.799939 1.39226,2.775145 10.38056,2.674959 13.44559,-0.149835 z M 60.817593,92.97351 l 1.311713,-3.559988 3.915395,3.559988 c 4.35214,3.957093 8.423656,4.671115 8.423656,1.477253 0,-1.14551 -0.946022,-6.307492 -2.102269,-11.471072 C 71.209841,77.81611 69.771379,71.277362 69.169507,68.44915 67.847015,62.234727 60.694009,61.116494 59.048544,66.866933 c -2.357443,8.238603 -5.265842,22.599657 -5.265842,26.001613 0,4.717079 5.306336,4.796253 7.034891,0.104901 z m 112.776217,0.791108 c 1.17014,-1.536664 2.13644,-1.888723 2.17135,-0.791108 0.0803,2.525139 6.2686,2.617097 6.2686,0.09319 0,-1.036542 1.25507,-0.571766 2.78904,1.032839 5.34557,5.591649 7.55379,1.237515 7.55379,-14.89453 0,-12.220229 -0.6517,-15.75079 -3.0366,-16.450794 -3.19659,-0.938243 -4.83424,0.382344 -8.52473,6.874272 l -2.25279,3.962864 -1.62037,-3.955542 c -2.29708,-5.607463 -5.09005,-7.859061 -8.50525,-6.856647 -4.36421,1.280956 -4.3176,33.754333 0.0485,33.754333 1.65003,0 3.94886,-1.245996 5.10851,-2.76888 z m 35.73221,-8.434797 c 0.78936,-5.585938 2.34979,-12.460641 3.4676,-15.277118 2.41801,-6.092469 -0.89581,-8.831484 -5.21659,-4.311749 -2.71035,2.835134 -2.86775,2.835134 -5.57809,0 -4.99929,-5.229478 -7.41403,-1.525652 -4.24926,6.517688 1.59564,4.055375 2.90117,10.701556 2.90117,14.769309 0,4.067768 0.63996,7.88542 1.42214,8.483704 3.47828,2.660481 5.92329,-0.771821 7.25303,-10.181834 z M 173.10537,52.62861 c -22.54513,-0.255628 -58.84845,-0.255263 -80.674048,8.13e-4 -21.825596,0.256075 -3.379579,0.465224 40.991148,0.464778 44.37073,-4.48e-4 62.22804,-0.209964 39.6829,-0.465591 z M 100.71683,37.425136 c 3.62978,-3.029539 7.69441,-8.591453 9.03252,-12.359811 3.49589,-9.84505 1.28969,-28.2417521 -4.29897,-35.847528 -4.40005,-5.988175 -4.42058,-6.271504 -0.83425,-11.513784 5.50551,-8.047611 6.3918,-29.062696 1.52314,-36.11529 -5.51364,-7.986872 -13.288987,-11.715395 -24.430934,-11.715395 -16.955249,0 -26.29546,8.461933 -26.677474,24.168943 l -0.213877,8.793907 9.264014,0 9.264015,0 2.157625,-8.702193 c 1.730221,-6.978375 2.949853,-8.702192 6.156965,-8.702192 4.680825,0 6.782762,4.547715 7.082516,15.323611 0.283443,10.189542 -2.470217,14.830568 -9.98892,16.83536 -5.643713,1.504843 -6.353409,2.391067 -6.353409,7.933726 0,5.4842541 0.687277,6.3715882 5.676984,7.3294828 10.051269,1.9295846 10.87154,3.3838539 10.87154,19.2743182 0,11.828993 -0.642778,15.075647 -3.129192,15.805444 -5.172826,1.5183 -9.282201,-2.535433 -9.282201,-9.156516 0,-5.071 -0.935314,-6.495016 -5.254756,-8.000364 -3.617336,-1.2606614 -7.001383,-1.3502829 -10.859969,-0.287614 -5.19604,1.431009 -5.557141,2.106996 -4.946676,9.260233 1.356697,15.897405 13.47139,25.442017 30.368702,23.926111 6.08632,-0.546021 10.017403,-2.198121 14.872607,-6.250449 z m 60.14228,-19.892157 c 6.45278,-33.644617 6.81592,-33.691218 12.84051,-1.647792 2.36775,12.593568 4.71692,23.787394 5.22037,24.875168 1.11207,2.402779 14.73881,2.648791 16.63637,0.300349 2.19229,-2.713196 20.08162,-105.78468 18.80269,-108.333911 -1.44457,-2.879387 -14.41065,-3.139522 -17.36,-0.348289 -1.1494,1.087774 -3.65425,12.657735 -5.56634,25.711023 -1.9121,13.053289 -4.26977,24.353143 -5.23929,25.110789 -1.82429,1.425617 -2.10023,0.237051 -7.23125,-31.147044 -1.68097,-10.281694 -3.59417,-19.359663 -4.25157,-20.173264 -1.55256,-1.921472 -12.76103,-1.921472 -14.3136,0 -0.65739,0.813601 -2.5706,9.89157 -4.25157,20.173264 -5.04253,30.842871 -5.32844,32.142833 -7.06947,32.142833 -0.92171,0 -3.3222,-11.213962 -5.33444,-24.919915 -2.01224,-13.705953 -4.57305,-25.809912 -5.69069,-26.897686 -2.83409,-2.758346 -15.8561,-2.534302 -17.27667,0.297245 -1.2828,2.55697 15.46715,100.90522 18.155,106.598066 1.45244,3.076247 2.95608,3.577805 9.48677,3.164434 l 7.76076,-0.491231 z"
         style="fill:#f28a74" />
      <path
         sodipodi:nodetypes="sssssssssscssssscssscssccssssssssscssssssssssssssssscsssscccsssscssssssscssssscssscsssssscsssssssssssssssscccsssssss"
         inkscape:connector-curvature="0"
         id="path3377"
         d="M 75.027224,135.09993 C 47.153304,127.12345 28.28435,121.366 27.022002,120.76491 25.759656,120.16383 23.732331,102.67275 23.002772,96.33948 21.52096,83.475884 6.2056964,-73.575197 6.2056964,-76.945246 c 0,-1.784985 21.4458196,-2.147322 127.0946936,-2.147322 69.90208,0 127.44342,0.533999 127.86963,1.186663 0.82168,1.258241 -16.06477,182.924595 -18.42332,191.209835 -0.97886,3.43859 2.79302,2.59853 -51.02875,17.73938 -29.84244,8.3951 -59.80991,17.92375 -61.51648,17.8138 -1.70657,-0.10996 -27.30032,-5.78072 -55.174246,-13.75718 z M 61.022681,94.951281 c 0.72219,-1.740438 2.118472,-3.164434 3.102848,-3.164434 0.984377,0 2.380659,1.423996 3.102848,3.164434 1.379634,3.324839 6.116902,4.252192 8.248081,1.614621 0.789763,-0.977415 2.72857,-0.844619 5.249502,0.359574 3.002822,1.434391 5.509744,1.472728 10.077029,0.154108 4.48568,-1.295076 6.718427,-1.28563 8.5155,0.03592 1.829931,1.345771 3.221101,0.905883 5.593621,-1.768712 3.82426,-4.311177 5.98219,-4.512688 7.29221,-0.680955 1.5169,4.436805 22.8139,4.554854 28.17159,0.156165 l 3.88762,-3.191774 1.09209,3.19429 c 1.02211,2.989614 2.56322,3.172044 24.05186,2.847167 l 22.95978,-0.347075 0.005,-13.844397 c 0.002,-7.614418 0.77556,-13.844397 1.71787,-13.844397 2.28917,0 6.56097,14.50097 6.56097,22.271743 0,5.153343 0.70293,6.20816 4.13713,6.20816 3.34266,0 4.13713,-1.054817 4.13713,-5.492793 0,-3.021037 1.54195,-10.860257 3.42654,-17.420491 3.68116,-12.813971 2.92766,-15.29794 -3.68271,-12.140309 -2.75773,1.317313 -5.03936,1.482525 -6.62876,0.479985 -1.33299,-0.8408 -6.1213,-1.415675 -10.64069,-1.2775 -6.26207,0.191457 -8.76752,1.097144 -10.53063,3.806692 l -2.31355,3.555463 -2.24945,-3.776249 c -2.0275,-3.403648 -3.61044,-3.791866 -16.04288,-3.934525 -12.23904,-0.140438 -13.91788,0.205733 -14.89779,3.071902 -1.10365,3.22811 -1.10736,3.228022 -5.79096,-0.137494 -3.07526,-2.209799 -6.71651,-3.190066 -10.59059,-2.851115 -5.88242,0.514668 -5.90777,0.56571 -6.93828,13.965398 -1.08946,14.166268 -2.90429,13.566307 -5.24716,-1.734676 -1.62164,-10.590747 -3.28259,-13.000657 -8.44638,-12.255082 -3.04202,0.439223 -4.50978,3.058181 -6.73776,12.022305 -2.583427,10.394261 -3.305271,11.460754 -7.75712,11.460754 -2.699745,0 -4.908625,0.711998 -4.908625,1.582217 0,0.870219 -0.930855,1.582217 -2.068566,1.582217 -1.137711,0 -2.068565,-3.915987 -2.068565,-8.702193 0,-7.857817 2.52643,-11.607093 4.605944,-6.835319 1.276404,2.928921 7.805449,0.179917 7.805449,-3.286417 0,-4.21455 -5.450461,-8.073757 -11.402785,-8.073757 -6.711432,0 -8.076356,2.198024 -9.333951,15.03106 l -1.085364,11.075517 -2.616051,-9.4933 c -1.43883,-5.221316 -3.062573,-11.095296 -3.60832,-13.053289 -0.972299,-3.488351 -7.752545,-5.033984 -9.981507,-2.275396 -1.924699,2.382029 -7.547691,32.16094 -6.352161,33.640534 2.072524,2.564979 6.820151,1.579163 8.180243,-1.698573 z m 95.570279,-4.164553 c -2.53865,-1.941775 -1.56575,-5.706565 1.9884,-7.694399 3.43577,-1.921618 3.04503,-3.858774 -1.82787,-9.061872 -3.15926,-3.373343 0.48987,-6.91307 5.58501,-5.41757 4.72322,1.38633 3.73185,22.114271 -1.09127,22.816743 -1.76204,0.256636 -3.85646,-0.03275 -4.65427,-0.642902 z m 59.57213,-37.764192 c 0,-1.627329 -156.628206,-3.186512 -161.990627,-1.612564 -1.497401,0.439508 -2.13654,1.524354 -1.42031,2.410768 1.775179,2.196983 163.410937,1.40745 163.410937,-0.798204 z M 98.237771,40.884716 c 9.398699,-5.654816 13.367779,-14.50957 13.419339,-29.937622 0.0375,-11.23550714 -0.79193,-14.8060246 -4.77836,-20.568819 l -4.82379,-6.973279 4.05211,-7.011128 c 5.44679,-9.424261 5.84438,-28.82832 0.74121,-36.17425 -9.595662,-13.812809 -36.868582,-15.347718 -47.715509,-2.68541 -3.950616,4.611805 -7.881536,20.164933 -6.029522,23.856479 0.899002,1.791946 3.844805,2.270527 11.798766,1.916852 l 10.600624,-0.471361 0.623749,-7.38947 c 0.701827,-8.314447 4.568088,-12.226785 8.500884,-8.602198 1.538167,1.417622 2.209973,6.807111 1.825879,14.647875 l -0.607684,12.405026 -7.757121,2.788474 c -6.654695,2.39218 -7.75712,3.528744 -7.75712,7.997337 0,5.7671135 3.082441,9.0061835 8.570679,9.0061835 6.775443,0 10.04641,6.23331079 10.04641,19.1449215 0,8.921298 -0.830552,12.63918 -3.152837,14.113364 -4.277324,2.715241 -5.789501,1.170357 -8.268803,-8.44764 l -2.113096,-8.197369 -10.298297,0 c -10.223653,0 -10.303206,0.03943 -10.975479,5.439413 -1.09578,8.801753 3.587399,18.627771 11.368895,23.853659 9.034452,6.067345 23.819294,6.649614 32.729073,1.288962 z m 56.560849,2.049411 c 1.72198,-0.834922 4.37738,-10.044033 7.06447,-24.500132 2.36798,-12.7393043 4.92206,-23.1623727 5.67573,-23.1623727 0.75367,0 3.10182,10.0507664 5.21809,22.3350377 2.29521,13.32289 5.00271,23.218424 6.71007,24.52436 3.56697,2.72832 13.77197,2.858859 16.53829,0.211552 2.4193,-2.315215 21.62263,-108.549229 19.98761,-110.572741 -0.60842,-0.753004 -5.26317,-1.369098 -10.3439,-1.369098 -11.53297,0 -11.81366,0.500331 -15.33568,27.336816 -1.45929,11.119261 -3.35014,20.546273 -4.20189,20.948914 -0.85174,0.402641 -2.6704,-6.558943 -4.04145,-15.470189 -1.37106,-8.911245 -3.11648,-19.762252 -3.87871,-24.113348 l -1.38588,-7.911084 -9.28006,0 -9.28005,0 -3.96424,24.128806 c -2.18033,13.270843 -4.58873,24.128806 -5.35199,24.128806 -0.76326,0 -2.59629,-9.433967 -4.07341,-20.964372 -3.53414,-27.587605 -3.80648,-28.084349 -15.397,-28.084349 -5.08071,0 -9.71941,0.596212 -10.3082,1.324916 -1.60661,1.988352 17.58436,108.328971 19.9627,110.616923 2.33662,2.247818 11.5527,2.59539 15.6855,0.591555 z"
         style="fill:#ef6555" />
      <path
         sodipodi:nodetypes="scscccssscscsssssscscssssssssssssscssssssssssccscsssssssssssssscscssssssssscssscssssssssssssssssssssssssssssssssssss"
         inkscape:connector-curvature="0"
         id="path3375"
         d="M 78.253846,122.91576 C 50.186524,114.92637 26.636328,107.94136 25.920077,107.3935 24.86052,106.58307 17.372736,31.134716 9.1790187,-61.292629 l -1.437707,-16.217722 126.3515083,0 126.35151,0 0.72055,9.485118 c 0.54942,7.232417 -9.67265,51.429006 -17.21218,136.120758 -2.01549,22.639766 -1.47099,37.935135 -2.76775,38.999115 -2.78071,2.28155 -103.69829,30.6216 -108.47334,30.46189 -1.88445,-0.063 -26.39044,-6.65138 -54.457764,-14.64077 z M 61.537582,96.299551 c 1.121688,-3.280853 1.259922,-3.295821 3.997116,-0.432594 2.379616,2.489191 5.845787,3.000928 21.568849,3.184386 17.213453,0.200846 18.862613,-0.04826 20.323483,-3.068789 1.58799,-3.283464 1.59279,-3.283211 4.03975,0.214011 1.99975,2.858037 4.2523,3.501366 12.25966,3.501366 5.39538,0 11.77883,-1.054911 14.18544,-2.344244 3.80686,-2.039509 4.69742,-2.047705 6.85085,-0.06297 1.9401,1.788048 7.46607,2.188997 25.56167,1.854691 l 23.08647,-0.426582 1.07175,-12.563735 c 0.89403,-10.480398 1.32151,-11.645464 2.57797,-7.025976 0.82842,3.045767 1.74241,8.741748 2.0311,12.657734 0.47422,6.432772 1.02401,7.119976 5.69629,7.119976 4.66937,0 5.22429,-0.691223 5.71596,-7.119976 0.29951,-3.915986 2.04569,-11.978726 3.88041,-17.917208 3.81331,-12.342745 2.06302,-16.105328 -5.75475,-12.370942 -3.10524,1.48331 -4.96229,1.583951 -6.56778,0.355934 -3.3469,-2.559996 -17.05241,-2.081243 -20.07137,0.701122 -2.26138,2.084161 -3.07164,2.108598 -5.94184,0.179206 -5.01994,-3.374484 -28.40648,-3.369337 -30.87662,0.0068 -1.77408,2.424764 -2.25741,2.425187 -6.77309,0.0059 -10.48724,-5.618507 -18.29374,-2.437036 -18.64875,7.600131 l -0.22664,6.407978 -1.73948,-6.748726 c -2.16586,-8.40291 -3.3302,-9.864489 -7.85843,-9.864489 -5.01958,0 -8.56589,3.117361 -8.56589,7.529797 0,2.085416 -0.91281,3.300966 -2.068568,2.754613 -1.137711,-0.537826 -2.068565,-2.375104 -2.068565,-4.082841 0,-4.386095 -8.834301,-7.235237 -15.370815,-4.957228 -3.562571,1.241577 -5.608111,3.736579 -7.01845,8.560608 -1.906539,6.52125 -1.999807,6.587118 -2.211994,1.562107 -0.406786,-9.633519 -8.460561,-14.985116 -14.130211,-9.389285 -3.56514,3.518722 -8.946306,33.205003 -6.438034,35.516701 3.404013,3.137233 8.185171,2.463033 9.484509,-1.337432 z m 95.673398,-9.090073 c 0,-1.64734 1.39628,-3.404978 3.10284,-3.905892 2.2417,-0.657965 3.10285,0.173301 3.10285,2.995153 0,2.417089 -1.1827,3.905892 -3.10285,3.905892 -1.70656,0 -3.10284,-1.347828 -3.10284,-2.995153 z M 86.879749,79.920221 c 0,-3.128058 1.045776,-3.955542 4.999034,-3.955542 2.749467,0 5.468543,-0.889997 6.042388,-1.977771 0.573847,-1.087774 1.116845,-0.434008 1.206664,1.452808 0.271764,5.708939 -2.087447,8.436047 -7.297986,8.436047 -3.901062,0 -4.9501,-0.838274 -4.9501,-3.955542 z m 71.710271,-5.010358 c -2.51937,-1.927023 -1.4254,-5.274051 1.7238,-5.274051 1.72381,0 3.10285,1.406415 3.10285,3.164434 0,3.152155 -2.20414,4.115536 -4.82665,2.109617 z m 58.14643,-19.792798 c 1.77673,-1.359001 1.82001,-2.42602 0.16031,-3.955542 -2.92731,-2.6979 -164.109119,-3.121064 -166.278231,-0.436545 -0.736815,0.911892 -0.820966,2.691886 -0.186998,3.955542 0.98076,1.954712 13.293404,2.297558 82.512309,2.297558 59.6072,0 82.01004,-0.497562 83.79261,-1.861013 z M 102.65834,39.113402 c 8.76464,-7.315279 11.76797,-16.329653 10.6939,-32.0973578 -0.65781,-9.6569099 -2.00361,-14.182232 -5.50722,-18.5183442 -4.49179,-5.559087 -4.5227,-5.871461 -0.98919,-9.996348 5.67581,-6.625745 6.41129,-31.273564 1.15049,-38.556399 -5.44044,-7.531531 -12.79267,-11.345397 -23.475973,-12.177841 -19.488896,-1.518575 -33.527247,10.604358 -32.365034,27.94909 l 0.583106,8.702193 9.986401,0.487265 c 12.585192,0.61407 15.501671,-1.267203 16.281201,-10.50218 1.004233,-11.897011 4.707261,-7.747879 5.360787,6.006604 l 0.599907,12.625983 -7.839886,2.817312 c -5.260691,1.890463 -8.066419,4.039403 -8.52847,6.532059 -1.230687,6.639274 1.37662,10.894447 7.381843,12.0472945 3.132243,0.6013104 6.863765,1.8352291 8.292269,2.7420419 3.267549,2.07423714 3.61017,27.4933916 0.391089,29.0151346 -3.335047,1.576561 -4.381236,0.0203 -5.575299,-8.29354 C 78.498414,13.719841 76.978579,9.7795868 75.720852,9.1402478 72.940119,7.7267222 59.501713,7.5643678 54.986166,8.8897449 48.062434,10.92196 52.21944,29.700646 61.450601,38.091914 c 7.129617,6.48093 11.913479,7.902087 24.266563,7.208938 8.577695,-0.481305 11.292435,-1.472814 16.941176,-6.18745 z m 55.35817,3.907823 c 0.57734,-0.714517 2.71994,-10.326484 4.76133,-21.359927 2.0414,-11.033445 4.18382,-20.0604319 4.76094,-20.0599715 0.57712,4.604e-4 2.69245,8.9859255 4.70073,19.9677015 2.00828,10.981776 4.15764,20.593366 4.77635,21.359089 0.61871,0.765725 5.2788,1.392226 10.35574,1.392226 11.52072,0 11.89358,-0.614335 16.32522,-26.897685 1.83409,-10.877741 5.95752,-34.373661 9.16316,-52.213155 3.20563,-17.839495 5.3938,-33.325441 4.8626,-34.413216 -1.09864,-2.249739 -22.36067,-2.810183 -24.11766,-0.635716 -0.59641,0.73813 -2.17455,9.816099 -3.50696,20.173265 -1.33242,10.357164 -3.06782,19.771794 -3.85645,20.9214 -0.78862,1.149605 -2.60035,-6.326369 -4.02604,-16.613277 -3.39925,-24.52666 -4.12963,-25.823443 -14.54454,-25.823443 -5.75036,0 -8.8208,0.837958 -10.14572,2.76888 -1.04494,1.522884 -3.11391,11.499768 -4.59771,22.170856 -1.4838,10.671088 -3.30846,18.85906 -4.0548,18.195493 -0.74634,-0.663566 -2.44108,-9.529255 -3.76609,-19.701533 -1.32501,-10.172277 -2.96659,-19.606245 -3.64795,-20.964373 -1.56826,-3.125946 -22.56713,-3.554365 -24.09331,-0.491552 -0.54203,1.087775 -0.21174,6.249757 0.73398,11.471072 0.94572,5.221316 5.04855,28.717235 9.1174,52.2131549 4.06885,23.4959191 8.27328,44.3218481 9.34319,46.2798411 1.60524,2.937704 3.55881,3.559988 11.17608,3.559988 5.07695,0 9.70318,-0.584604 10.28051,-1.299118 z"
         style="fill:#ef512c;fill-opacity:1" />
      <path
         sodipodi:nodetypes="ssscccsssssssscssssssssssssssscsssssscsssssssssssssscsssssssssssssssscssscssssssssss"
         inkscape:connector-curvature="0"
         id="path3373"
         d="M 73.563618,133.48791 C 45.496291,125.49852 28.216762,120.06644 27.488403,119.50933 26.342499,118.63284 8.3970976,-61.353998 8.307343,-73.159255 l -0.033081,-4.351096 126.085028,0 126.08504,0 -0.99825,7.51553 c -0.92103,6.934241 -2.68034,26.084936 -12.46412,135.675091 -2.02014,22.62801 -6.53854,49.45043 -7.83463,50.51387 -0.69518,0.57039 -7.52391,2.76943 -17.45058,5.74466 -9.92668,2.97522 -23.84585,6.64785 -36.93278,10.32297 -6.54347,1.83756 -11.48926,3.41822 -18.92785,5.63228 -6.12405,1.82279 -11.9032,3.48584 -17.28551,5.0208 -4.70509,1.34182 -7.68979,2.45482 -8.81394,2.73436 -1.40511,0.34942 -5.9995,1.53434 -9.57828,2.55826 -2.18569,-0.58694 -3.61002,-0.70906 -6.33859,-1.31872 -2.21626,-0.4952 -7.34165,-1.47595 -13.02236,-2.84216 -5.14454,-1.23727 -10.79548,-3.03583 -17.212692,-4.55172 -6.417207,-1.51588 -13.004299,-4.00962 -20.02113,-6.00696 z m 80.616582,0.17624 c 2.56662,-0.2744 29.22898,-7.95499 45.15693,-12.25857 15.92796,-4.3036 34.3931,-8.52258 35.68834,-9.56811 0.67665,-0.5462 1.66394,-6.40264 2.65058,-14.054669 0.98664,-7.652032 1.97264,-17.099663 2.64671,-24.828262 1.29029,-14.793726 11.18731,-78.7574835 11.52953,-85.429887 0.45154,-8.803702 1.62272,-30.9634 3.45556,-41.274149 1.81506,-10.210731 2.64766,-16.991961 2.1331,-17.388244 -2.90568,-2.237757 -139.03571,-0.153941 -140.1459,2.0695 -0.50594,1.013265 -0.0812,6.470284 0.94393,12.126709 10.0566,55.49168 13.94438,80.382439 14.33368,91.768574 l 0.45983,13.448843 -41.176316,0.791109 c -39.452516,0.757989 -41.17632,0.923584 -41.17632,3.955542 0,3.04134 1.566849,3.181197 40.279874,3.595383 22.662232,0.242462 41.164382,1.107501 42.302162,1.977771 1.31734,1.007618 0.21959,1.546821 -3.14912,1.546821 -7.26742,0 -10.10034,2.789914 -10.36262,10.205299 l -0.22664,6.407978 -1.73948,-6.748726 c -2.16586,-8.402972 -3.3302,-9.864551 -7.85843,-9.864551 -5.07121,0 -8.53705,3.107672 -8.73463,7.831973 -0.16174,3.867095 -0.29013,3.822442 -3.091545,-1.075236 -5.802398,-10.144249 -19.958723,-8.23645 -23.289494,3.138645 -1.900102,6.489138 -1.974628,6.539247 -2.188613,1.471674 -0.406786,-9.633519 -8.460561,-14.985116 -14.130211,-9.389285 -2.623194,2.58904 -8.924199,32.415398 -7.463176,35.327595 1.769412,3.526903 9.18839,2.716273 10.509651,-1.148326 1.121688,-3.280853 1.259922,-3.295821 3.997116,-0.432594 2.379616,2.489191 5.845787,3.000928 21.568849,3.184386 17.213453,0.200846 18.862613,-0.04826 20.323483,-3.068789 1.58799,-3.283464 1.59279,-3.283211 4.03975,0.214011 1.96689,2.811077 4.27072,3.501366 11.68565,3.501366 l 9.23576,0 0,12.394029 c 0,6.81673 -0.8859,25.57256 -0.12743,26.15269 2.29386,1.75455 18.8707,-4.25456 21.91944,-4.5805 z M 86.879749,79.920221 c 0,-3.128058 1.045776,-3.955542 4.999034,-3.955542 2.749467,0 5.468543,-0.889997 6.042388,-1.977771 0.573847,-1.087774 1.116845,-0.434008 1.206664,1.452808 0.271764,5.708939 -2.087447,8.436047 -7.297986,8.436047 -3.901062,0 -4.9501,-0.838274 -4.9501,-3.955542 z M 101.41969,40.320843 c 9.73967,-7.137301 13.00121,-15.851803 11.98964,-32.0351283 -0.68478,-10.9553119 -1.88389,-15.2330803 -5.53752,-19.7548547 -4.51908,-5.592863 -4.55053,-5.903403 -1.01598,-10.029508 5.67581,-6.625745 6.41129,-31.273564 1.15049,-38.556399 -5.44044,-7.531531 -12.79267,-11.345397 -23.475973,-12.177841 -19.488896,-1.518575 -33.527247,10.604358 -32.365034,27.94909 l 0.583106,8.702193 9.986401,0.487265 c 12.585192,0.61407 15.501671,-1.267203 16.281201,-10.50218 1.05465,-12.4943 4.76088,-7.498958 4.76088,6.416824 l 0,13.015187 -6.205696,1.599765 c -7.724541,1.991309 -9.245193,3.562417 -9.245193,9.551957 0,5.9870372 1.71832,7.9696229 8.21091,9.473694 2.844278,0.6589032 6.334982,1.9100443 7.757121,2.7803126 3.258818,1.99421019 3.592281,27.4299334 0.379517,28.9486894 -3.335047,1.576561 -4.381236,0.0203 -5.575299,-8.29354 C 77.843819,9.1621283 76.277418,7.9868925 65.846135,7.9535852 53.990074,7.9157228 51.712738,9.1512205 51.725673,15.614166 c 0.02482,12.407115 8.731483,25.303785 19.471119,28.841473 8.384895,2.762022 23.663878,0.671704 30.222898,-4.134796 z"
         style="fill:#ed3e33" />
      <path
         transform="matrix(0.52756459,0,0,0.4181586,77.377102,-87.338538)"
         inkscape:connector-curvature="0"
         id="path4339"
         d="m 104.84042,539.39026 c -1.05334,-0.61351 -0.80839,-1.47706 0.41898,-1.47706 3.50163,0 38.56577,-11.36476 84.26942,-27.31287 31.75626,-11.08122 78.16362,-27.91423 93.19272,-33.80314 3.17484,-1.24401 5.87508,-2.15919 6.00053,-2.03374 0.12545,0.12545 0.0713,0.86264 -0.12026,1.6382 -0.31286,1.26644 -0.62765,1.54972 -3.0898,2.78049 -5.02571,2.51224 -20.89597,8.3579 -47.93971,17.65813 -5.90652,2.03123 -21.25217,7.37091 -34.10145,11.86594 -42.34891,14.81483 -51.46689,17.90419 -58.40579,19.78905 -1.65798,0.45037 -5.89711,1.83711 -9.42029,3.08165 -21.01864,7.42465 -28.30057,9.27168 -30.80435,7.81335 l 0,0 z"
         style="fill:#ef512c;fill-opacity:1" />
      <path
         transform="matrix(0.52756459,0,0,0.4181586,77.377102,-87.338538)"
         inkscape:connector-curvature="0"
         id="path4341"
         d="m 105.37408,539.41355 c -1.08397,-0.45481 -0.88744,-1.2714 0.34368,-1.42804 2.44433,-0.31094 22.10171,-6.25478 31.24585,-9.44786 6.45068,-2.25255 2.29427,-1.07778 -9.72165,2.74773 -15.78424,5.02523 -19.05818,5.94622 -21.36531,6.01029 l -1.88406,0.0523 0,-17.33333 c 0,-9.53333 0.0848,-29.79638 0.18841,-45.02899 l 0.1884,-27.69565 -4.14492,-0.20812 c -2.279715,-0.11447 -3.551454,-0.24299 -2.826091,-0.2856 2.306742,-0.1355 9.885331,-1.85553 12.740101,-2.89148 1.51503,-0.54977 4.34743,-1.93213 6.29423,-3.0719 5.87071,-3.43707 6.66307,-3.42907 10.4812,0.10584 1.24878,1.15615 2.99967,2.41465 3.89087,2.79666 5.03637,2.15884 13.65,2.7703 34.9849,2.4835 23.99141,-0.32251 53.84586,-1.0566 54.11927,-1.33074 0.12937,-0.12971 0.60351,-5.83149 1.05364,-12.67062 1.83614,-27.89727 2.65488,-37.1726 3.47062,-39.31812 0.32684,-0.85964 0.42965,-0.91286 0.72927,-0.37749 1.57209,2.80911 4.18195,20.31507 5.44047,36.49271 0.88252,11.34426 1.60281,13.85685 4.43793,15.48087 1.45684,0.83451 1.99791,0.91043 6.48793,0.91043 5.51197,0 6.77517,-0.42245 8.37884,-2.80213 1.4562,-2.16085 1.54332,-2.66829 2.94779,-17.16888 1.02842,-10.61808 3.05175,-22.22794 6.89528,-39.56522 2.92043,-13.17332 3.59623,-17.46851 3.61653,-22.9855 0.0188,-5.11509 -0.54849,-7.23836 -2.41069,-9.02245 -1.3108,-1.25583 -3.7459,-1.65304 -5.91205,-0.96437 -0.80175,0.2549 -3.80265,1.63121 -6.66868,3.05846 -4.47617,2.22911 -5.49317,2.59502 -7.21247,2.59502 -1.685,0 -2.2911,-0.20785 -3.83253,-1.31434 -4.0709,-2.92221 -6.48205,-3.69946 -13.50337,-4.35286 -7.53714,-0.7014 -17.45759,0.69868 -22.28551,3.14517 -1.02401,0.51891 -2.77528,1.88328 -3.8917,3.03193 -3.49789,3.59889 -5.26321,3.72082 -9.35685,0.64628 -3.3578,-2.52189 -5.5646,-3.52673 -10.28395,-4.68269 -11.7923,-2.88842 -31.8341,-2.98884 -42.17629,-0.21133 -4.27434,1.14793 -6.3293,2.42068 -8.00689,4.95913 -1.79541,2.71673 -2.87677,3.46325 -4.55936,3.14759 -0.69589,-0.13055 -3.58209,-1.67424 -6.4138,-3.43042 -2.8317,-1.75618 -5.95114,-3.59487 -6.93208,-4.08597 -2.00393,-1.00327 -6.15314,-2.48152 -7.15459,-2.54898 -0.36185,-0.0244 0.16356,-0.18218 1.16759,-0.35067 3.03366,-0.50911 4.00607,-2.25266 1.98652,-3.56187 -1.82369,-1.18223 -16.347157,-2.70593 -31.696084,-3.32533 -1.450725,-0.0585 8.892753,-0.14601 22.985507,-0.19438 48.366627,-0.16599 117.196467,-0.78881 129.057967,-1.1678 20.18821,-0.64504 31.74725,-1.50123 36.2337,-2.68389 2.45303,-0.64663 4.86189,-4.36032 4.29455,-6.6208 -0.38963,-1.55237 -2.07299,-3.80796 -3.157,-4.23015 -7.22249,-2.81295 -76.71439,-4.82034 -173.211826,-5.00352 l -33.15942,-0.063 23.990623,-0.6018 c 13.194844,-0.33099 24.073923,-0.68658 24.175743,-0.7902 0.26325,-0.26793 -0.76475,-35.16075 -1.24892,-42.39131 -0.76319,-11.39727 -2.58425,-30.27873 -4.00542,-41.52963 -0.319723,-2.53115 -0.525289,-4.88585 -0.456815,-5.23266 0.06848,-0.34682 1.115995,5.96326 2.327825,14.02238 4.45028,29.59609 8.64851,53.41605 10.09728,57.29015 1.72905,4.62358 5.20487,7.18815 10.93729,8.06989 4.54607,0.69925 20.2889,0.24947 24.66248,-0.70463 4.04716,-0.88288 4.95678,-1.30986 5.4274,-2.54769 1.14207,-3.00387 4.63895,-22.98064 9.03238,-51.59969 4.46413,-29.07958 7.67058,-46.15942 8.66564,-46.15942 1.04781,0 4.3682,17.79324 8.8599,47.47826 3.83217,25.32626 7.3363,45.61582 8.50104,49.22255 0.74428,2.30475 2.51674,3.0623 9.58428,4.09638 5.08312,0.74372 17.92427,0.74618 21.42685,0.004 6.98771,-1.48047 10.36725,-6.18534 13.22576,-18.41241 1.9683,-8.41927 3.14842,-16.20758 9.62913,-63.5483 2.90802,-21.24276 6.30058,-45.80373 7.53902,-54.57995 1.23844,-8.77622 2.2517,-16.10991 2.2517,-16.2971 0,-0.19971 12.28587,-0.34034 29.73226,-0.34034 l 29.73226,0 -0.15397,1.41304 c -0.0847,0.77717 -0.49977,6.75435 -0.9224,13.28261 -0.42263,6.52826 -3.80799,55.19348 -7.52303,108.14493 -3.71504,52.95145 -7.60676,109.75579 -8.64827,126.23188 -3.01811,47.74456 -4.24775,62.80083 -5.20598,63.74439 -0.653,0.64302 -35.7474,13.73362 -61.97811,23.11854 -7.41096,2.65152 -13.41067,4.88476 -13.33268,4.96275 0.26243,0.26243 38.34847,-13.4642 62.31056,-22.45742 6.67759,-2.50617 12.23085,-4.55667 12.34058,-4.55667 0.39183,0 0.19088,1.75149 -0.27151,2.36647 -0.65083,0.86561 -6.44423,3.49867 -13.84583,6.29286 -15.16216,5.72388 -114.20381,40.17706 -125.17032,43.54245 -3.79728,1.1653 -12.41501,3.96273 -19.15051,6.21651 -16.62169,5.5618 -22.21698,6.93822 -24.43011,6.0096 z m 43.51916,-14.81189 c 15.98385,-5.20352 59.05324,-20.208 58.7826,-20.47864 -0.074,-0.074 -8.59611,2.8169 -18.93793,6.42432 -10.34181,3.60742 -25.40768,8.78729 -33.47972,11.51081 -8.07203,2.72353 -14.76986,5.05819 -14.88405,5.18814 -0.1142,0.12994 0.0737,0.13568 0.41765,0.0127 0.34391,-0.12293 3.98956,-1.31875 8.10145,-2.65737 l 0,10e-6 z m 62.23246,-21.52704 c 1.10147,-0.36217 1.93634,-0.72482 1.85527,-0.80589 -0.1911,-0.1911 -4.79997,1.36242 -4.79997,1.61793 0,0.10677 0.21195,0.1159 0.47101,0.0203 0.25906,-0.0956 1.37222,-0.47016 2.47369,-0.83233 l 0,-2e-5 z"
         style="fill:#ef512c;fill-opacity:1" />
      <path
         transform="matrix(0.52756459,0,0,0.4181586,77.377102,-87.338538)"
         inkscape:connector-curvature="0"
         id="path4343"
         d="m 105.37408,539.41355 c -1.3122,-0.5506 -0.80537,-1.22889 1.28273,-1.7167 l 1.85752,-0.43396 -2.26087,0.0426 -2.26087,0.0425 0.15299,-45.12318 0.15299,-45.12319 -4.10951,-0.0352 -4.109512,-0.0352 3.956522,-0.67544 c 7.58115,-1.29422 10.6982,-2.35141 16.26491,-5.51644 5.97998,-3.40002 6.79926,-3.40886 10.40624,-0.11228 5.24527,4.79389 9.12025,5.43548 32.67668,5.4104 19.7119,-0.021 59.29259,-0.88646 60.11723,-1.31452 0.47837,-0.24832 0.73116,-2.51959 1.43121,-12.85929 1.91061,-28.21986 2.70397,-37.02255 3.52073,-39.06422 l 0.40034,-1.00072 0.52522,1.23755 c 1.5291,3.60298 3.7648,18.50907 5.02895,33.52965 1.11845,13.28922 1.68483,15.65589 4.19135,17.51392 2.27211,1.68427 11.55003,1.6901 13.86933,0.009 2.27446,-1.64888 3.1746,-5.31775 4.1851,-17.05795 0.89477,-10.39572 2.90114,-22.13377 6.95606,-40.69566 3.45982,-15.83776 4.3022,-22.19156 3.59444,-27.11159 -0.68715,-4.77671 -2.35686,-6.62202 -5.97197,-6.60005 -1.88028,0.0114 -2.86424,0.3633 -8.16683,2.92044 -7.59184,3.66111 -8.67405,3.7724 -12.33184,1.26817 -4.86826,-3.33294 -9.30735,-4.23077 -19.27266,-3.898 -10.56966,0.35295 -15.22795,1.77971 -19.7853,6.05994 -3.87296,3.63747 -5.25757,3.72677 -9.46149,0.61028 -4.29158,-3.18148 -8.262,-4.58923 -16.72608,-5.93037 -3.33376,-0.52823 -6.50243,-0.66222 -15.4951,-0.65518 -12.2361,0.01 -15.61275,0.35952 -21.54206,2.23258 -3.55189,1.12205 -5.07219,2.17785 -6.77332,4.70388 -1.65218,2.45335 -2.78938,3.20332 -4.37743,2.88686 -0.67113,-0.13374 -4.07884,-1.9633 -7.5727,-4.06569 -4.41759,-2.65823 -7.45904,-4.20402 -9.98551,-5.07504 -2.1993,-0.75823 -3.21932,-1.25386 -2.5847,-1.2559 4.10008,-0.0132 4.97902,-3.21859 1.1262,-4.10714 -4.0058,-0.92383 -14.617118,-1.95471 -27.232507,-2.6456 -4.004579,-0.21931 0.121406,-0.31677 15.449275,-0.36491 45.113812,-0.14171 118.567362,-0.7933 132.117802,-1.17199 22.49107,-0.62855 36.12568,-1.74355 38.9067,-3.18167 1.28144,-0.66265 2.87091,-2.8169 3.26037,-4.41885 0.27808,-1.14378 -0.77518,-3.79497 -2.02257,-5.0911 -1.00522,-1.04449 -3.22988,-1.48616 -10.98694,-2.18125 -23.76981,-2.12998 -85.49603,-3.48186 -166.362319,-3.64354 l -30.144927,-0.0603 18.275362,-0.48543 c 10.051449,-0.26699 20.888246,-0.60064 24.081769,-0.74144 l 5.806405,-0.256 -0.24517,-12.01186 c -0.49735,-24.36682 -1.49841,-39.64923 -4.21472,-64.34294 -0.72131,-6.5574 -1.295268,-12.26168 -1.27546,-12.67617 0.01982,-0.4145 0.94834,5.09637 2.06341,12.24637 4.71301,30.22063 7.85975,48.71327 9.42496,55.38822 1.52051,6.4843 4.06987,9.56917 9.19939,11.13174 4.33778,1.32139 22.00734,1.09837 28.24374,-0.35648 3.73332,-0.87093 4.35983,-1.37767 5.02909,-4.06766 1.42178,-5.71474 4.63684,-24.62154 8.92531,-52.48712 4.02571,-26.15821 7.32908,-43.52174 8.27991,-43.52174 1.07383,0 3.88789,14.98303 8.84641,47.10145 4.91268,31.82143 7.87019,48.60884 8.90393,50.5404 0.59073,1.10377 3.05439,2.08621 7.16288,2.85635 2.80002,0.52487 5.58231,0.66666 13.15945,0.67065 9.22614,0.005 9.70942,-0.0313 12.13864,-0.90767 7.64881,-2.75947 10.55685,-9.7284 14.39955,-34.50756 0.73921,-4.76667 3.29824,-22.91014 5.68675,-40.31884 2.3885,-17.40869 5.78023,-41.9384 7.53716,-54.51046 1.75693,-12.57206 3.19442,-22.95793 3.19442,-23.07971 0,-0.12178 13.40604,-0.22142 29.79121,-0.22142 l 29.7912,0 -0.20609,1.60145 c -0.11335,0.88079 -0.3825,4.39927 -0.59811,7.81884 -0.21562,3.41956 -2.08002,30.38043 -4.14312,59.91304 -8.16479,116.87652 -11.35164,163.37068 -13.36591,195 -2.11061,33.14212 -3.37248,47.60745 -4.22676,48.45306 -0.61399,0.60775 -38.77801,14.92475 -56.17388,21.0733 -1.92159,0.67917 -3.424,1.30465 -3.33871,1.38994 0.18034,0.18034 19.4903,-6.80354 42.51336,-15.3759 8.84766,-3.29432 16.18136,-5.98968 16.2971,-5.98968 0.28341,0 0.26724,1.2976 -0.0257,2.06094 -0.58326,1.51995 -9.78882,5.24904 -34.43054,13.94751 -35.9454,12.68864 -95.88812,33.43179 -102.86957,35.59797 -2.79782,0.8681 -11.44565,3.67636 -19.21739,6.24057 -18.82705,6.21181 -24.06924,7.52282 -26.31416,6.5809 l 1e-5,0 z m 4.35704,-2.48163 c -0.12522,-0.12521 -0.45022,-0.1386 -0.72222,-0.0297 -0.3006,0.12028 -0.21131,0.20957 0.22765,0.22765 0.39722,0.0164 0.61978,-0.0727 0.49457,-0.19791 l 0,-10e-6 z m 2.17451,-0.52597 c 0.47503,-0.20412 0.54468,-0.32384 0.18841,-0.32384 -0.31087,0 -0.90435,0.14573 -1.31884,0.32384 -0.47502,0.20413 -0.54467,0.32385 -0.18841,0.32385 0.31087,0 0.90435,-0.14573 1.31884,-0.32385 z m 2.63769,-0.75362 c 0.47502,-0.20413 0.54467,-0.32384 0.1884,-0.32384 -0.31087,0 -0.90435,0.14573 -1.31884,0.32384 -0.47502,0.20413 -0.54467,0.32384 -0.1884,0.32384 0.31087,0 0.90434,-0.14572 1.31884,-0.32384 z m 4.89855,-1.50725 c 1.03623,-0.38236 1.62971,-0.69521 1.31884,-0.69521 -0.31087,0 -1.41305,0.31285 -2.44928,0.69521 -1.03623,0.38237 -1.62971,0.69522 -1.31884,0.69522 0.31087,0 1.41304,-0.31285 2.44928,-0.69522 z m 9.89926,-3.09493 c 4.03051,-1.28773 7.18246,-2.38733 7.00432,-2.44356 -0.17813,-0.0562 -3.63039,0.98059 -7.6717,2.30403 -4.0413,1.32345 -7.19325,2.42305 -7.00433,2.44355 0.18892,0.0205 3.64119,-1.0163 7.67171,-2.30402 z m 28.0881,-9.32358 c 4.52059,-1.50279 8.1546,-2.79702 8.07556,-2.87605 -0.18329,-0.18329 -16.88522,5.38734 -17.19441,5.73488 -0.12696,0.14271 0.0235,0.17263 0.33439,0.0665 0.31086,-0.10614 4.26387,-1.42253 8.78446,-2.92533 l 0,0 z m 21.61301,-7.40796 c 6.38936,-2.20021 12.60151,-4.33855 13.80477,-4.75186 1.20327,-0.41331 2.12038,-0.81885 2.03802,-0.90121 -0.14867,-0.14866 -27.44031,9.19167 -27.74368,9.49504 -0.35435,0.35435 0.75334,-0.003 11.90089,-3.84197 z m 19.83674,-6.91074 c 1.41215,-0.46613 2.50056,-0.91448 2.41869,-0.99636 -0.18291,-0.1829 -5.58723,1.63256 -5.89522,1.98037 -0.1218,0.13755 0.0329,0.1631 0.34376,0.0568 0.31087,-0.10631 1.72062,-0.57467 3.13277,-1.04079 l 0,0 z m 12.69332,-4.60172 c 0.39282,-0.24271 0.27789,-0.27237 -0.37681,-0.0972 -0.51812,0.13859 -1.19638,0.40913 -1.50725,0.60121 -0.39282,0.2427 -0.27789,0.27237 0.37682,0.0972 0.51811,-0.13859 1.19637,-0.40913 1.50724,-0.6012 z m 10.55073,-3.76812 c 0.39282,-0.2427 0.27789,-0.27237 -0.37682,-0.0972 -0.51811,0.13859 -1.19637,0.40913 -1.50724,0.6012 -0.39282,0.24271 -0.27789,0.27237 0.37681,0.0972 0.51812,-0.13859 1.19638,-0.40913 1.50725,-0.60121 z m 4.71014,-1.67478 c 0.90789,-0.41341 0.94498,-0.46925 0.18841,-0.28364 -0.51812,0.12711 -1.45073,0.46275 -2.07247,0.74586 -0.90789,0.41341 -0.94498,0.46925 -0.1884,0.28364 0.51811,-0.12711 1.45072,-0.46275 2.07246,-0.74586 z"
         style="fill:#ef512c;fill-opacity:1" />
      <path
         transform="matrix(0.52756459,0,0,0.4181586,77.377102,-87.338538)"
         inkscape:connector-curvature="0"
         id="path4345"
         d="m 105.37408,539.41698 c -1.06739,-0.45202 -0.90177,-1.20244 0.3421,-1.55003 0.7509,-0.20983 0.6568,-0.26215 -0.52707,-0.293 l -1.44117,-0.0376 0.27442,-45.21739 0.27441,-45.21739 -4.10861,-0.0304 -4.108612,-0.0304 4.138382,-0.7281 c 7.50381,-1.32021 10.93419,-2.5136 16.58626,-5.77018 5.38693,-3.10381 6.5046,-3.05022 10.43658,0.50042 3.97165,3.58646 7.32818,4.42542 19.70834,4.92601 9.75122,0.3943 60.13644,-0.31275 69.78611,-0.9793 l 3.09045,-0.21347 0.21075,-1.56915 c 0.11592,-0.86303 0.80269,-10.0474 1.52616,-20.40972 1.41253,-20.23185 2.16309,-28.06752 2.8549,-29.80421 l 0.43593,-1.09434 0.5557,1.31226 c 1.49903,3.53988 3.73684,18.30559 4.9979,32.97759 0.87133,10.13763 1.54146,14.39424 2.54161,16.14401 0.39265,0.68695 1.42354,1.55969 2.44053,2.06614 1.53203,0.76292 2.31613,0.87681 6.0368,0.87681 6.55618,0 8.23137,-0.94519 9.46717,-5.34166 0.56824,-2.02158 0.74874,-3.39522 1.95471,-14.87573 1.15282,-10.97447 2.73835,-20.16026 6.41234,-37.14992 3.11577,-14.40827 3.99884,-19.91183 3.99296,-24.88551 -0.008,-6.44392 -1.21892,-9.32058 -4.27073,-10.14235 -2.16336,-0.58253 -3.88825,-0.0793 -10.48594,3.05917 -6.78855,3.22927 -8.19368,3.38433 -11.35731,1.25328 -5.3103,-3.57708 -7.4367,-4.0793 -17.27699,-4.0805 -8.24689,-0.001 -11.99001,0.48992 -16.2029,2.12511 -2.5947,1.00711 -3.78425,1.80036 -6.45183,4.3024 -3.37153,3.16231 -4.7486,3.16397 -9.27818,0.0112 -3.50905,-2.44242 -5.45896,-3.32873 -9.59389,-4.36077 -5.30154,-1.32321 -10.34424,-1.91452 -18.38625,-2.15599 -16.88408,-0.50694 -27.85148,1.56206 -31.30714,5.90609 -2.95111,3.70978 -3.63822,4.24678 -5.12513,4.00549 -0.75284,-0.12217 -3.75812,-1.64873 -6.67841,-3.39235 -6.52528,-3.89607 -8.46753,-4.88206 -11.8818,-6.0318 l -2.67018,-0.89917 1.56778,-0.21029 c 1.95484,-0.26219 3.3279,-1.48622 2.73606,-2.43907 -0.65255,-1.05056 -2.09664,-1.56744 -6.04873,-2.16498 -3.120299,-0.47178 -18.724823,-1.74622 -26.693896,-2.18012 -1.243478,-0.0677 5.53913,-0.15842 15.072464,-0.20158 49.068972,-0.22218 118.703832,-0.85081 133.014492,-1.2008 23.7328,-0.58042 38.79508,-1.72276 41.54473,-3.15079 1.21843,-0.6328 2.43456,-2.20122 3.0169,-3.89084 0.96471,-2.79906 -1.28176,-6.10261 -4.63957,-6.82273 -11.92212,-2.55684 -83.8051,-4.43757 -177.458291,-4.64298 l -27.130435,-0.0595 17.144927,-0.48199 c 9.429711,-0.26509 20.265388,-0.59901 24.079286,-0.74204 l 6.934353,-0.26004 -0.25523,-11.54384 c -0.56956,-25.76054 -1.47136,-39.35652 -4.39618,-66.27864 -0.61372,-5.64907 -1.100663,-10.65125 -1.082097,-11.11594 0.01858,-0.4647 1.360817,7.54858 2.982787,17.80728 5.91782,37.4292 8.31748,50.45626 9.96882,54.11768 1.98337,4.39761 5.42502,6.60955 11.33805,7.28692 6.54118,0.74934 19.38037,0.24926 24.7073,-0.96232 3.71718,-0.84545 4.2686,-1.4133 5.18248,-5.33684 1.3744,-5.90073 3.32485,-17.20006 7.00793,-40.5982 6.13371,-38.96671 8.92307,-54.07246 9.98476,-54.07246 1.07703,0 3.75149,14.19568 8.87391,47.10145 4.78141,30.71517 7.70316,47.38831 8.7955,50.19209 0.47603,1.22185 1.68073,1.872 4.96146,2.67757 6.11137,1.50064 22.60361,1.79215 26.94841,0.47633 5.81396,-1.76074 9.2267,-6.70769 11.66383,-16.90731 2.20716,-9.23715 2.87221,-13.62878 11.29637,-74.59412 3.41474,-24.71233 6.72065,-48.57717 7.34648,-53.03297 0.62583,-4.4558 1.13836,-8.14384 1.13896,-8.19565 5.9e-4,-0.0518 13.41338,-0.0942 29.8062,-0.0942 l 29.80511,0 -0.22257,2.16666 c -0.12241,1.19167 -0.39613,4.79493 -0.60826,8.00725 -0.21213,3.21232 -1.57288,22.88188 -3.02387,43.71014 -10.56184,151.60867 -11.80658,169.72277 -14.11183,205.36232 -2.27841,35.22469 -3.55891,50.88932 -4.32455,52.90309 -0.25092,0.65998 -1.69756,1.37937 -6.66762,3.31567 -3.49095,1.36004 -7.41102,2.85662 -8.71128,3.32573 -1.30025,0.46911 -2.29716,0.91985 -2.21536,1.00166 0.0818,0.0818 3.51956,-1.108 7.63946,-2.64401 9.88855,-3.68673 9.18638,-3.50176 9.18638,-2.41984 0,0.49247 -0.21196,1.17446 -0.47102,1.51552 -0.79776,1.0503 -4.74505,2.86323 -13.47101,6.18703 -13.98848,5.32833 -109.30424,38.51266 -125.85507,43.81663 -4.66305,1.49435 -13.31087,4.30488 -19.2174,6.24563 -16.86257,5.54068 -21.86067,6.75043 -24.05329,5.82189 l 0,0 z m 13.40052,-5.12274 c -0.12522,-0.12521 -0.45022,-0.1386 -0.72223,-0.0297 -0.30059,0.12028 -0.2113,0.20957 0.22766,0.22765 0.39722,0.0164 0.61978,-0.0727 0.49457,-0.19791 l 0,-10e-6 z m 13.10205,-4.09207 c 1.45527,-0.66635 0.77838,-0.67613 -0.94203,-0.0136 -0.72536,0.27933 -1.06449,0.51313 -0.75362,0.51955 0.31087,0.006 1.07391,-0.22125 1.69565,-0.50595 l 0,0 z m 25.55306,-8.47546 c 1.41215,-0.46612 2.50056,-0.91448 2.41868,-0.99636 -0.18291,-0.1829 -5.58723,1.63256 -5.89521,1.98037 -0.1218,0.13755 0.0329,0.1631 0.34376,0.0568 0.31087,-0.10631 1.72062,-0.57467 3.13277,-1.04079 l 0,0 z m 16.46143,-5.66858 c 0.31087,-0.2009 0.39565,-0.36527 0.18841,-0.36527 -0.20725,0 -0.63116,0.16437 -0.94203,0.36527 -0.31087,0.2009 -0.39565,0.36527 -0.18841,0.36527 0.20725,0 0.63116,-0.16437 0.94203,-0.36527 z m 10.48042,-3.56335 c 1.72293,-0.56991 3.06622,-1.10258 2.98508,-1.18371 -0.183,-0.18301 -6.7161,2.00619 -7.02427,2.3538 -0.12311,0.13885 0.0305,0.16553 0.34138,0.0593 0.31087,-0.10625 1.97489,-0.65947 3.69781,-1.22937 z m 14.38915,-5.10332 c 0.31087,-0.2009 0.39565,-0.36527 0.1884,-0.36527 -0.20724,0 -0.63116,0.16437 -0.94203,0.36527 -0.31087,0.2009 -0.39565,0.36527 -0.1884,0.36527 0.20724,0 0.63116,-0.16437 0.94203,-0.36527 z m 38.05797,-13.62879 c 0.39282,-0.24271 0.27789,-0.27237 -0.37681,-0.0973 -0.51812,0.1386 -1.19638,0.40914 -1.50725,0.60121 -0.39282,0.24271 -0.27789,0.27237 0.37681,0.0972 0.51812,-0.1386 1.19638,-0.40914 1.50725,-0.60121 z m 4.71014,-1.67478 c 0.9079,-0.41341 0.94499,-0.46925 0.18841,-0.28364 -0.51812,0.12711 -1.45073,0.46274 -2.07246,0.74585 -0.9079,0.41342 -0.94499,0.46926 -0.18841,0.28365 0.51812,-0.12711 1.45072,-0.46275 2.07246,-0.74586 z m 3.57971,-1.27614 c 0.31087,-0.2009 0.39566,-0.36527 0.18841,-0.36527 -0.20725,0 -0.63116,0.16437 -0.94203,0.36527 -0.31087,0.2009 -0.39565,0.36527 -0.18841,0.36527 0.20725,0 0.63116,-0.16437 0.94203,-0.36527 z m 4.14493,-1.57082 c 0.39282,-0.2427 0.27789,-0.27237 -0.37681,-0.0972 -0.51812,0.13859 -1.19638,0.40913 -1.50725,0.6012 -0.39282,0.24271 -0.27789,0.27237 0.37681,0.0972 0.51812,-0.1386 1.19638,-0.40913 1.50725,-0.60121 z m 4.14493,-1.50724 c 0.39282,-0.24271 0.27789,-0.27237 -0.37681,-0.0973 -0.51812,0.13859 -1.19638,0.40913 -1.50725,0.6012 -0.39282,0.24271 -0.27789,0.27237 0.37681,0.0972 0.51812,-0.13859 1.19638,-0.40913 1.50725,-0.6012 z m 3.01449,-1.13044 c 0.39282,-0.24271 0.27789,-0.27237 -0.37681,-0.0973 -0.51812,0.1386 -1.19638,0.40914 -1.50725,0.60121 -0.39282,0.24271 -0.27789,0.27237 0.37681,0.0972 0.51812,-0.1386 1.19638,-0.40914 1.50725,-0.60121 z m 4.14493,-1.50724 c 0.39282,-0.24271 0.27789,-0.27237 -0.37681,-0.0972 -0.51812,0.13859 -1.19638,0.40913 -1.50725,0.6012 -0.39282,0.24271 -0.27789,0.27237 0.37681,0.0972 0.51812,-0.13859 1.19638,-0.40913 1.50725,-0.6012 z m 3.57971,-1.29797 c 0.90789,-0.41342 0.94498,-0.46926 0.1884,-0.28364 -0.51811,0.1271 -1.45072,0.46274 -2.07246,0.74585 -0.90789,0.41341 -0.94498,0.46925 -0.1884,0.28364 0.51811,-0.12711 1.45072,-0.46274 2.07246,-0.74585 z m 3.57971,-1.33972 c 0.39282,-0.2427 0.27789,-0.27237 -0.37681,-0.0972 -0.51812,0.13859 -1.19638,0.40913 -1.50725,0.6012 -0.39282,0.24271 -0.27789,0.27237 0.37681,0.0972 0.51812,-0.13859 1.19638,-0.40913 1.50725,-0.60121 z m 3.01449,-1.13043 c 0.39282,-0.24271 0.27789,-0.27237 -0.37681,-0.0973 -0.51812,0.13859 -1.19638,0.40913 -1.50725,0.60121 -0.39282,0.2427 -0.27789,0.27237 0.37682,0.0972 0.51811,-0.13859 1.19637,-0.40913 1.50724,-0.6012 z"
         style="fill:#ef512c;fill-opacity:1" />
      <path
         transform="matrix(0.52756459,0,0,0.4181586,77.377102,-87.338538)"
         inkscape:connector-curvature="0"
         id="path4347"
         d="m 105.21723,539.41415 c -0.89524,-0.55387 -0.82863,-1.08043 0.1884,-1.48919 0.76183,-0.30623 0.71968,-0.34323 -0.41549,-0.36468 l -1.26331,-0.0239 0.27986,-45.21739 0.27986,-45.21739 -4.1035,-0.0308 -4.103502,-0.0308 4.627872,-0.87817 c 6.79356,-1.28911 9.4527,-2.2061 15.60228,-5.38034 5.37275,-2.77327 5.57648,-2.84406 6.97101,-2.42228 0.79009,0.23896 2.5361,1.39642 3.88003,2.57213 5.67995,4.96899 8.25325,5.24455 45.78837,4.90317 25.68594,-0.23361 46.39715,-0.72912 46.7874,-1.11937 0.18361,-0.18361 0.54616,-4.72096 2.18791,-27.38169 1.38848,-19.16492 1.99904,-24.54052 2.84682,-25.06447 0.81418,-0.5032 2.91553,9.55944 4.28988,20.54274 0.32416,2.59058 1.01108,9.20362 1.52649,14.69565 1.28138,13.65418 1.80605,15.45285 4.95173,16.97564 1.50302,0.7276 2.15934,0.79526 6.46879,0.66683 5.51341,-0.1643 6.61147,-0.55868 7.89016,-2.83381 1.18497,-2.10836 1.54997,-4.10882 2.58418,-14.16287 1.40688,-13.67697 2.64797,-21.07131 6.74915,-40.21101 3.34232,-15.59821 4.07659,-20.48504 3.89474,-25.92084 -0.23202,-6.93507 -1.7069,-9.21333 -5.94322,-9.18051 -1.76062,0.0136 -4.52635,1.07769 -11.31035,4.35141 -4.07309,1.96552 -5.81572,1.89872 -9.34324,-0.35816 -1.47585,-0.94423 -3.58998,-2.03544 -4.69807,-2.4249 -4.81999,-1.69409 -16.3479,-1.87619 -23.67974,-0.37405 -4.46682,0.91516 -7.49523,2.40306 -10.62951,5.22244 -3.75436,3.37717 -5.125,3.47741 -9.0757,0.66376 -3.29746,-2.34842 -5.77965,-3.5151 -9.75492,-4.58499 -6.1406,-1.65266 -11.56413,-2.1831 -22.51061,-2.20162 -10.84433,-0.0183 -15.04991,0.37461 -20.34783,1.90125 -4.29881,1.23874 -5.96522,2.2882 -8.25012,5.19568 -2.94725,3.75029 -3.39788,3.7241 -10.70121,-0.62206 -5.96067,-3.54716 -9.55381,-5.34646 -12.34827,-6.18354 l -2.2551,-0.67551 1.68386,-0.42755 c 3.01991,-0.76678 3.66514,-1.958 1.70593,-3.14947 -1.86809,-1.13605 -7.827502,-1.87691 -24.47277,-3.04237 l -9.608696,-0.67278 14.507247,-0.0557 C 126.74162,345.2467 203.2954,344.5707 218.73172,344.2314 c 25.89445,-0.56918 41.39452,-1.68173 44.59613,-3.201 1.70194,-0.80762 3.25894,-3.33766 3.25894,-5.29559 0,-2.0114 -1.68202,-4.44818 -3.46079,-5.01371 -8.59938,-2.73403 -81.87034,-4.75312 -181.365293,-4.99778 l -24.492753,-0.0602 21.478261,-0.66984 c 11.813043,-0.3684 22.647175,-0.68389 24.075845,-0.70107 l 2.59758,-0.0312 -0.25363,-10.83334 c -0.5614,-23.97943 -1.54284,-39.42534 -4.01641,-63.21014 -0.81901,-7.87536 -1.47507,-14.65797 -1.457895,-15.07246 0.01718,-0.4145 1.612995,9.16594 3.546265,21.28985 5.51496,34.58543 7.59674,45.9022 9.24965,50.28207 1.12763,2.98797 3.61519,5.47439 6.59971,6.59668 3.50227,1.31699 10.71017,1.76579 19.52986,1.21603 10.22026,-0.63706 13.48255,-1.4547 14.47244,-3.62726 0.99897,-2.1925 3.46356,-16.13941 8.72616,-49.38056 3.80073,-24.00732 5.18398,-32.13937 6.82611,-40.13044 1.68441,-8.19677 2.13378,-9.21663 2.94706,-6.6884 1.26885,3.94449 3.80505,17.95387 7.38444,40.78985 5.78133,36.88407 8.59173,52.99851 9.64699,55.31455 0.9285,2.03785 5.07045,3.10998 14.28524,3.69767 8.7532,0.55825 16.22109,0.0665 19.21774,-1.26557 6.37485,-2.83368 9.56269,-10.55997 12.78761,-30.99303 1.04895,-6.64616 4.98624,-34.58555 10.00958,-71.02898 4.63775,-33.64597 6.59426,-47.7244 6.79454,-48.89131 l 0.21019,-1.22463 29.79531,0 29.79532,0 -0.24288,2.73188 c -0.13358,1.50254 -1.00405,13.75362 -1.93439,27.22464 -0.93033,13.47101 -3.47195,50.0971 -5.64805,81.3913 -6.26342,90.07344 -7.18864,103.57116 -9.40183,137.15942 -3.17112,48.12621 -4.2304,61.41163 -5.07331,63.62865 -0.2425,0.6378 -1.36163,1.25561 -4.50769,2.48846 -4.77513,1.87122 -5.43462,2.4362 -0.94714,0.8114 4.84087,-1.75276 4.68124,-1.72865 4.68124,-0.70708 0,1.6702 -1.0754,2.46172 -6.42656,4.73009 -8.6056,3.64795 -38.96096,14.41177 -103.79083,36.80361 -20.29926,7.01124 -54.52453,18.26147 -62.66881,20.59994 -5.45529,1.56637 -9.28284,2.10329 -10.33844,1.45023 z m 52.0942,-17.70385 c 0.31087,-0.2009 0.39565,-0.36527 0.18841,-0.36527 -0.20725,0 -0.63116,0.16437 -0.94203,0.36527 -0.31087,0.2009 -0.39565,0.36527 -0.18841,0.36527 0.20725,0 0.63116,-0.16437 0.94203,-0.36527 z m 27.50725,-9.48386 c 0.39282,-0.24271 0.27789,-0.27237 -0.37681,-0.0973 -0.51812,0.13859 -1.19638,0.40913 -1.50725,0.60121 -0.39282,0.2427 -0.27789,0.27237 0.37681,0.0972 0.51812,-0.13859 1.19638,-0.40913 1.50725,-0.6012 z m 91.94203,-33.09585 c 0.31087,-0.2009 0.39565,-0.36527 0.1884,-0.36527 -0.20724,0 -0.63116,0.16437 -0.94203,0.36527 -0.31087,0.2009 -0.39565,0.36527 -0.1884,0.36527 0.20724,0 0.63116,-0.16437 0.94203,-0.36527 z m 3.01449,-1.13043 c 0.31087,-0.2009 0.39565,-0.36527 0.18841,-0.36527 -0.20725,0 -0.63116,0.16437 -0.94203,0.36527 -0.31087,0.2009 -0.39566,0.36527 -0.18841,0.36527 0.20725,0 0.63116,-0.16437 0.94203,-0.36527 z"
         style="fill:#ef512c;fill-opacity:1" />
      <path
         transform="matrix(0.52756459,0,0,0.4181586,77.377102,-87.338538)"
         inkscape:connector-curvature="0"
         id="path4349"
         d="m 105.12303,539.2649 c -0.7449,-0.59114 -0.74516,-0.60463 -0.0222,-1.16329 0.70095,-0.54166 0.68707,-0.56522 -0.3328,-0.56522 l -1.06424,0 0.28096,-45.21739 0.28095,-45.21739 -4.09308,-0.0308 -4.093083,-0.0308 4.521743,-0.86587 c 6.90557,-1.32235 8.55327,-1.88574 15.16191,-5.18429 5.92184,-2.95575 6.16401,-3.03996 7.53624,-2.6205 0.77978,0.23835 2.43518,1.31023 3.67866,2.38195 5.05775,4.35911 7.529,4.83735 26.3785,5.10482 13.60824,0.1931 54.44714,-0.38498 62.60053,-0.88612 l 3.81962,-0.23476 0.22746,-2.11393 c 0.12511,-1.16266 0.65655,-8.1335 1.18098,-15.49074 1.97741,-27.74098 2.53274,-33.37357 3.40847,-34.5712 1.32108,-1.80668 4.03783,13.61905 5.82316,33.06395 0.88261,9.61293 1.6403,14.64613 2.4366,16.18601 0.8695,1.68143 2.66928,2.96038 4.56625,3.24485 0.95032,0.14251 3.50051,0.18027 5.66711,0.0839 4.30626,-0.19152 5.22393,-0.5779 6.77234,-2.85146 1.05877,-1.5546 1.43977,-3.71335 2.77466,-15.72128 1.40246,-12.61579 2.64582,-20.01825 6.19621,-36.88947 3.99242,-18.9717 4.14306,-19.92793 4.16124,-26.41488 0.0145,-5.19091 -0.0565,-5.79908 -0.87056,-7.45231 -1.93227,-3.92403 -4.72775,-3.91736 -13.25957,0.0316 -7.40524,3.42755 -8.33644,3.50474 -12.32641,1.02171 -3.75795,-2.33864 -6.43741,-3.15037 -11.86695,-3.59503 -5.55726,-0.45512 -11.23536,-0.17197 -16.21413,0.80856 -4.72084,0.92974 -7.04301,1.97475 -10.01567,4.50722 -3.69946,3.15164 -4.18879,3.41949 -5.92691,3.24429 -1.0664,-0.1075 -2.43929,-0.76234 -4.46732,-2.13085 -4.55164,-3.07141 -7.73765,-4.25831 -14.71779,-5.48289 -5.0428,-0.8847 -16.72754,-1.3226 -24.53915,-0.91963 -12.12234,0.62533 -17.53598,2.39686 -21.16544,6.92604 -1.1138,1.38991 -2.38041,2.56668 -2.90408,2.69811 -1.36896,0.34359 -2.64219,-0.21705 -9.36215,-4.12238 -5.43094,-3.15622 -8.51156,-4.63002 -12.11612,-5.79647 l -1.13044,-0.36582 1.64131,-0.28391 c 2.06337,-0.35692 3.2475,-1.42716 2.70356,-2.44353 -0.86415,-1.61468 -5.98575,-2.37405 -25.446316,-3.77287 l -9.42029,-0.67713 12.057971,-0.0521 c 39.457095,-0.17041 116.180325,-0.84773 132.186385,-1.16695 24.84794,-0.49556 40.00742,-1.37589 45.73331,-2.65581 1.90867,-0.42664 3.58162,-1.71313 4.49076,-3.45335 1.28517,-2.46003 0.007,-5.93783 -2.60642,-7.09405 -6.32718,-2.79881 -60.01679,-4.52715 -160.39824,-5.16345 -25.180432,-0.15961 -45.104345,-0.32605 -44.27536,-0.36986 0.828986,-0.0438 8.289855,-0.25776 16.57971,-0.47542 8.289855,-0.21767 18.445146,-0.50572 22.567315,-0.64013 l 7.494845,-0.24438 -0.25299,-10.01934 c -0.66213,-26.22288 -1.55687,-39.89868 -4.38871,-67.08013 -0.975719,-9.36541 -1.316858,-13.93544 -0.902045,-12.08413 0.06965,0.31087 0.909165,5.56739 1.865585,11.68116 5.30457,33.90879 9.12801,55.5242 10.51849,59.46525 1.43494,4.06704 4.53705,6.79149 8.81486,7.7417 5.55031,1.23288 20.38242,1.06415 26.88059,-0.30579 3.88354,-0.81872 4.70928,-1.38358 5.39946,-3.69353 0.99719,-3.3375 3.00444,-14.59485 6.56714,-36.83082 7.72652,-48.22372 9.80495,-59.53623 10.9385,-59.53623 1.03675,0 3.3153,11.64006 7.75274,39.60512 7.44595,46.92497 9.21678,56.80056 10.45336,58.29654 1.34199,1.62348 5.7615,2.58736 14.16851,3.09009 8.84745,0.52907 15.79028,0.0359 18.85477,-1.33939 4.23341,-1.89985 7.08763,-6.06483 9.23555,-13.47683 2.34351,-8.08696 3.25534,-14.06428 14.15194,-92.76973 3.32837,-24.04058 6.14712,-44.17645 6.26389,-44.74638 l 0.21231,-1.03623 29.73818,0 c 16.35599,0 29.73817,0.14387 29.73817,0.31971 0,0.17584 -1.94661,28.28128 -4.32581,62.45652 -6.31866,90.76242 -11.42231,165.04944 -13.75675,200.23826 -2.38356,35.9294 -3.31756,46.98622 -4.15516,49.18927 -0.19026,0.50041 -1.24684,1.15945 -2.97281,1.85427 -3.18613,1.28264 -3.32896,1.64783 -0.22709,0.58062 1.20631,-0.41502 2.25152,-0.7546 2.3227,-0.7546 0.0712,0 0.12942,0.49715 0.12942,1.10478 0,2.73845 -3.82558,4.23388 -69.14493,27.02905 -49.31211,17.20896 -61.41183,21.31953 -89.01128,30.23935 -19.38933,6.2664 -23.49446,7.22995 -25.16263,5.90606 l 0,0 z m 177.66666,-62.39518 c 0.31087,-0.2009 0.39566,-0.36527 0.18841,-0.36527 -0.20725,0 -0.63116,0.16437 -0.94203,0.36527 -0.31087,0.2009 -0.39565,0.36527 -0.18841,0.36527 0.20725,0 0.63116,-0.16437 0.94203,-0.36527 z"
         style="fill:#ef512c;fill-opacity:1" />
      <path
         transform="matrix(0.52756459,0,0,0.4181586,77.377102,-87.338538)"
         inkscape:connector-curvature="0"
         id="path4351"
         d="m 105.13725,539.3048 c -0.62891,-0.47327 -0.66425,-0.64698 -0.23647,-1.16242 0.43702,-0.52658 0.39059,-0.60599 -0.3543,-0.60599 l -0.85722,0 0.27513,-45.21739 0.27514,-45.21739 -4.07999,-0.0234 -4.079992,-0.0234 5.105672,-1.05163 c 6.84359,-1.40962 8.27864,-1.90958 14.81012,-5.1598 3.07832,-1.53184 5.92969,-2.78517 6.33637,-2.78517 1.05142,0 2.04654,0.58227 4.83479,2.82898 1.34711,1.08546 2.99196,2.24952 3.65524,2.5868 4.28628,2.1796 12.71569,2.64976 41.93897,2.33919 26.4262,-0.28084 46.35103,-0.82484 46.80407,-1.27788 0.16996,-0.16996 0.89983,-8.26749 1.62192,-17.99451 2.12795,-28.66465 2.48885,-32.37912 3.2911,-33.87257 0.38882,-0.72383 0.44575,-0.69127 0.96058,0.54941 1.47457,3.55357 3.24825,14.93213 4.94671,31.73429 1.70945,16.911 1.92399,17.69718 5.30619,19.4445 1.55353,0.80259 2.06417,0.86257 6.21435,0.73001 8.39238,-0.26807 8.72152,-0.80613 10.54758,-17.24213 1.60087,-14.4091 2.70111,-20.89235 7.13024,-42.01561 3.04189,-14.50726 3.77689,-19.81205 3.44141,-24.83818 -0.28813,-4.31676 -0.7628,-5.69784 -2.44473,-7.11308 -2.20923,-1.85895 -4.4927,-1.39636 -13.39913,2.71446 -5.31834,2.45471 -6.88885,2.53881 -10.17392,0.54482 -5.44697,-3.30624 -8.39114,-3.96853 -17.5541,-3.94879 -11.4887,0.0247 -16.18827,1.33188 -21.85622,6.07909 -4.08722,3.42326 -4.91116,3.43957 -9.88755,0.1958 -7.23373,-4.71519 -14.92505,-6.22975 -31.60757,-6.22412 -9.62296,0.003 -14.20898,0.34161 -18.57282,1.37031 -4.74334,1.11816 -6.50848,2.11502 -9.68055,5.46714 -2.80797,2.96733 -2.94112,3.05541 -4.28843,2.83677 -0.76477,-0.1241 -4.04891,-1.75471 -7.29809,-3.62358 -6.18332,-3.55654 -9.67091,-5.26892 -12.37253,-6.07485 l -1.61061,-0.48047 1.7671,-0.59703 c 3.35263,-1.13272 3.06808,-2.68918 -0.66884,-3.65852 -2.53536,-0.65767 -10.732726,-1.51421 -22.558192,-2.3571 l -9.231884,-0.65804 38.811596,-0.26348 c 115.05907,-0.78112 143.15446,-1.49605 151.5478,-3.85636 4.64425,-1.30602 6.04821,-6.48006 2.58373,-9.5219 -1.5405,-1.35259 -3.56246,-1.7456 -12.88101,-2.50373 -24.35277,-1.98126 -93.46444,-3.41211 -175.163565,-3.62649 -10.569565,-0.0277 -18.963043,-0.10608 -18.652174,-0.1741 0.31087,-0.068 11.078261,-0.40779 23.927536,-0.75504 12.849276,-0.34725 23.429813,-0.69268 23.512303,-0.76762 0.19814,-0.18002 -0.63993,-27.48773 -1.10901,-36.13581 -0.57308,-10.56545 -1.39365,-20.57336 -3.02751,-36.92438 -0.82818,-8.28812 -1.456971,-15.40644 -1.397306,-15.8185 0.05966,-0.41205 0.838776,3.91044 1.731366,9.60554 4.86854,31.06352 8.15765,50.32742 9.74571,57.07937 1.69931,7.22495 3.49108,9.68898 8.37405,11.51593 5.82306,2.17868 28.68963,1.40009 32.06895,-1.09193 0.51811,-0.38207 1.14254,-1.10334 1.38762,-1.60282 0.94134,-1.91849 3.15167,-14.44144 8.97264,-50.83568 5.50906,-34.44415 7.78867,-46.34782 8.87583,-46.34782 1.09588,0 3.39688,12.18667 9.21352,48.7971 5.83627,36.73395 7.83956,47.7623 8.91035,49.05251 0.25009,0.30135 0.89726,0.77675 1.43814,1.05646 4.52706,2.34103 25.52828,3.01342 30.91204,0.9897 5.25552,-1.97551 8.07156,-6.40626 10.70443,-16.84228 1.94161,-7.6961 3.64835,-19.1867 14.1552,-95.29987 2.9181,-21.13913 5.38907,-38.8163 5.49105,-39.28261 l 0.18542,-0.84782 29.76094,0 c 29.44872,0 29.76093,0.008 29.76093,0.74901 0,0.41196 -0.25629,4.26957 -0.56954,8.57247 -0.60111,8.257 -2.63595,37.5606 -7.89586,113.7075 -5.57644,80.72948 -6.16619,89.33113 -8.48683,123.78261 -3.54028,52.55788 -4.46722,64.04718 -5.29153,65.58742 -0.18939,0.35388 -1.40876,1.07887 -2.70971,1.61108 -1.30095,0.53222 -2.17412,0.97594 -1.94037,0.98604 0.23375,0.0101 1.03374,-0.23599 1.77775,-0.54686 1.88676,-0.78834 2.13059,-0.7227 2.13059,0.57352 0,1.5909 -1.87571,2.69637 -10.09396,5.94904 -19.9558,7.8982 -118.51978,41.92719 -156.82966,54.14508 -9.97795,3.18218 -14.99701,4.12783 -16.381,3.08628 l 0,0 z"
         style="fill:#ef512c;fill-opacity:1" />
      <g
         id="g4439">
        <path
           sodipodi:nodetypes="cssscccsssssscsssssssssscssssssssscsscsssssssssscssscssscssssssssssscccssscscssscc"
           style="fill:#ef512c;fill-opacity:1"
           d="m 109.43984,555.48973 c -0.44405,-0.25841 -5.58967,1.52439 -5.43837,1.04768 0.16663,-0.525 -0.34107,-4.40429 -0.34295,-6.78924 -0.003,-3.33796 0.0414,-14.75284 0.29648,-57.42917 l 0.27023,-45.21739 -4.07284,-0.0321 -4.072842,-0.0321 5.218472,-1.06144 c 6.3139,-1.28424 8.30854,-1.98987 15.0726,-5.33209 2.87818,-1.42215 5.56322,-2.58572 5.96677,-2.58572 1.02199,0 1.87247,0.505 5.45888,3.24144 4.83281,3.68741 7.13342,4.13606 23.20492,4.52525 9.86079,0.2388 55.95103,-0.42464 64.52763,-0.92882 l 4.14493,-0.24367 0.26174,-2.44928 c 0.14395,-1.3471 0.87067,-10.67318 1.61494,-20.72463 1.48577,-20.06577 2.23196,-27.51376 2.87732,-28.71963 0.39892,-0.74539 0.44636,-0.75217 0.8031,-0.11472 1.50438,2.68818 3.48825,15.26595 5.38008,34.10971 1.42245,14.16851 1.87269,15.8329 4.73989,17.52174 1.1084,0.65287 1.93437,0.75092 6.178,0.73339 5.5179,-0.0228 6.82736,-0.43257 8.1213,-2.54154 1.13547,-1.8507 1.40615,-3.19751 2.43863,-12.13388 1.90268,-16.46817 3.13991,-23.92913 6.9624,-41.98599 3.44018,-16.25091 3.87539,-19.05964 3.88708,-25.08647 0.009,-4.50421 -0.10142,-5.52324 -0.75357,-6.97102 -2.03761,-4.52344 -4.54854,-4.43699 -15.38047,0.52952 -5.11835,2.34679 -6.54568,2.35125 -10.37951,0.0324 -5.02826,-3.04123 -6.74304,-3.38806 -16.75093,-3.38806 -12.49653,0 -16.02473,0.93485 -22.01251,5.83256 -4.10424,3.35706 -5.02258,3.41227 -9.42178,0.56644 -7.72561,-4.99766 -15.4623,-6.58741 -32.05846,-6.58741 -12.16999,0 -19.17911,0.91286 -23.72463,3.08985 -0.94566,0.45291 -3.01872,2.1567 -4.63737,3.81133 -2.79617,2.85832 -2.98771,2.98246 -4.27838,2.77302 -0.74314,-0.1206 -3.49546,-1.44497 -6.11626,-2.94306 -6.78321,-3.87737 -10.86376,-5.91724 -13.2011,-6.59924 l -2.03021,-0.59239 2.03021,-0.80932 c 2.34082,-0.93314 2.71376,-1.97213 1.00232,-2.7924 -2.31982,-1.11186 -6.820795,-1.63348 -29.493858,-3.41809 -3.776858,-0.29728 -3.325137,-0.33149 5.086956,-0.38525 153.652912,-0.98206 178.511422,-1.65702 183.168852,-4.9734 1.54748,-1.1019 2.7467,-3.77875 2.43565,-5.43677 -0.46412,-2.474 -2.42115,-4.05661 -5.81141,-4.69955 -12.38969,-2.34966 -88.30303,-4.22306 -185.822077,-4.58576 -16.913485,-0.0629 -17.220882,-0.0765 -8.855072,-0.39319 4.766666,-0.18041 15.534057,-0.53517 23.927536,-0.78835 l 15.260873,-0.46033 -0.0991,-7.72464 c -0.15431,-12.02395 -0.80974,-27.83389 -1.62463,-39.1884 -0.64529,-8.99152 -1.18733,-14.97907 -3.401,-37.56917 -0.227511,-2.32174 -0.351018,-4.40927 -0.274458,-4.63896 0.07656,-0.22968 1.044968,5.31558 2.152028,12.3228 3.39685,21.50078 7.47185,45.61159 8.70095,51.48148 1.49725,7.15047 2.35078,9.39407 4.41219,11.59788 3.12866,3.34479 6.57405,4.14221 17.87292,4.13658 9.71102,-0.005 16.54698,-0.7968 18.73464,-2.17045 0.48361,-0.30366 1.12257,-1.13435 1.41991,-1.84598 0.8624,-2.06401 2.85992,-12.85247 6.16824,-33.31418 8.69277,-53.76409 10.51111,-63.68116 11.67628,-63.68116 1.15218,0 3.07544,10.07153 9.06643,47.47826 6.17285,38.54222 8.09323,49.16763 9.10729,50.39044 1.54819,1.86689 6.57102,2.73857 17.26226,2.99575 12.66922,0.30477 15.91901,-0.32885 19.36598,-3.77582 2.87739,-2.87739 5.2238,-8.43046 6.95123,-16.45095 1.80513,-8.38124 2.64383,-14.093 12.50455,-85.15942 3.52264,-25.38768 6.49075,-46.54094 6.5958,-47.00725 l 0.191,-0.84782 29.76094,0 29.76093,0 0,0.78459 c 0,0.43153 21.36416,-7.97925 16.58685,56.42754 -4.35411,58.70136 -10.23321,133.53536 -14.2678,179.39322 -5.51757,62.7136 -5.72266,71.15115 -5.91483,72.1295 -0.10609,0.38349 -0.58941,6.91634 -0.80154,8.07843 -0.1349,0.73907 -1.24682,7.20095 -0.29967,5.34507 0.53502,-1.90975 -4.40076,2.16173 -5.8609,2.87579 -1.38172,0.67571 -8.20228,3.89125 -14.54877,6.51394 -16.78841,6.93784 -137.02617,50.09281 -164.20884,58.78336 -3.87305,1.23825 -5.92937,2.045 -8.6213,2.83204 z"
           id="path4353"
           inkscape:connector-curvature="0"
           transform="matrix(0.52756459,0,0,0.4181586,77.377102,-87.338538)" />
      </g>
      <path
         transform="matrix(0.52756459,0,0,0.4181586,77.377102,-87.338538)"
         inkscape:connector-curvature="0"
         id="path4357"
         d=""
         style="fill:#ef512c;fill-opacity:1" />
      <path
         transform="matrix(0.52756459,0,0,0.4181586,77.377102,-87.338538)"
         inkscape:connector-curvature="0"
         id="path4359"
         d="m 168.03214,483.41494 0,-37.56367 7.89346,-0.0896 c 19.72359,-0.22386 37.58506,-0.64826 42.17818,-1.00218 0.83636,-0.0645 1.41819,-0.17024 1.47921,-0.26896 0.23704,-0.38355 0.96689,-9.16774 2.33645,-28.12051 1.03798,-14.36431 1.47782,-19.20015 2.01146,-22.11502 0.23832,-1.30177 0.63795,-2.31202 0.8853,-2.23796 0.34771,0.1041 0.90163,1.58202 1.48787,3.96986 1.50128,6.11492 2.97377,16.48625 4.14229,29.17584 1.19108,12.93463 1.8756,16.44339 3.52874,18.08763 0.31799,0.31628 1.07688,0.81901 1.70939,1.13239 l 1.13752,0.5636 4.33965,0 c 3.70109,0 4.48893,-0.0351 5.35404,-0.2382 2.66779,-0.62646 3.86301,-2.43314 4.64577,-7.02246 0.33133,-1.94255 0.96948,-7.0975 1.32762,-10.72445 1.0633,-10.76817 2.89799,-21.68419 6.24713,-37.16922 0.58636,-2.71109 1.17295,-5.45382 1.30352,-6.09495 l 0.23741,-1.16571 17.95776,0 c 17.20273,0 17.95777,0.0101 17.95777,0.23977 0,0.13186 -0.38852,5.90209 -0.86338,12.82271 -0.47485,6.92063 -1.22444,17.91854 -1.66574,24.4398 -0.44131,6.52127 -0.9547,14.10499 -1.14087,16.85272 -0.52216,7.70646 -1.49048,20.81707 -1.85967,25.17915 -0.431,5.09227 -0.65792,7.16582 -1.07977,9.86658 l -0.3446,2.20627 -1.01926,0.37692 c -1.38252,0.51125 -2.4718,0.99647 -2.39943,1.06883 0.0328,0.0328 0.61154,-0.11786 1.2861,-0.33478 0.67456,-0.21693 1.33139,-0.39915 1.45961,-0.40493 0.14065,-0.006 0.16674,-0.0373 0.0658,-0.078 -0.2099,-0.0846 -0.0823,-0.31116 0.17523,-0.31116 0.12818,0 0.19129,0.14386 0.18993,0.43297 -10e-4,0.29197 -0.0392,0.37437 -0.11609,0.25301 -0.0766,-0.12093 -0.14447,0.032 -0.20682,0.46628 -0.22555,1.57098 -0.48638,1.97581 -1.77887,2.76095 -4.17356,2.53531 -18.19588,7.66301 -73.03396,26.70713 -6.33809,2.20108 -17.81858,6.18799 -25.51221,8.85979 -7.69363,2.6718 -15.3373,5.32118 -16.98594,5.8875 -1.64863,0.56632 -3.07245,1.05803 -3.16404,1.09268 -0.13298,0.0503 -0.16653,-7.50491 -0.16653,-37.50064 z"
         style="fill:#ef512c;fill-opacity:1" />
      <g
         id="g4435">
        <path
           style="fill:#ef512c;fill-opacity:1"
           d="m 288.77773,475.53005 c 0.0195,-0.66882 -0.004,-0.73002 -0.31198,-0.80663 -0.32588,-0.0811 -0.3233,-0.0863 0.11979,-0.24214 0.24907,-0.0876 0.47389,-0.15924 0.49959,-0.15924 0.0922,0 0.018,0.61167 -0.15366,1.26562 l -0.17481,0.66612 0.0211,-0.72373 z"
           id="path4355"
           inkscape:connector-curvature="0"
           transform="matrix(0.52756459,0,0,0.4181586,77.377102,-87.338538)" />
        <rect
           style="fill:#ef512c;fill-opacity:1"
           id="rect4361"
           width="3.1973524"
           height="2.2647913"
           x="285.49692"
           y="473.06085"
           transform="matrix(0.52756459,0,0,0.4181586,77.377102,-87.338538)" />
      </g>
      <rect
         transform="matrix(0.52756459,0,0,0.4181586,77.377102,-87.338538)"
         y="533.54413"
         x="103.64751"
         height="3.4637985"
         width="6.2614818"
         id="rect4365"
         style="fill:#ef512c;fill-opacity:1" />
      <rect
         transform="matrix(0.52756459,0,0,0.4181586,77.377102,-87.338538)"
         y="535.54242"
         x="106.57841"
         height="1.8651222"
         width="1.4654531"
         id="rect4367"
         style="fill:#ef512c;fill-opacity:1" />
      <rect
         transform="matrix(0.52756459,0,0,0.4181586,77.377102,-87.338538)"
         y="536.74146"
         x="104.58007"
         height="1.0657841"
         width="2.6644604"
         id="rect4369"
         style="fill:#ef512c;fill-opacity:1" />
    </g>
    <text
       transform="matrix(0.95105651,0.309017,-0.309017,0.95105651,0,0)"
       sodipodi:linespacing="125%"
       id="text4329"
       y="476.67178"
       x="76.37249"
       style="font-size:57.59999847px;font-style:normal;font-weight:normal;line-height:125%;letter-spacing:0px;word-spacing:0px;fill:#fefefe;fill-opacity:1;stroke:none;font-family:Sans"
       xml:space="preserve"><tspan
         y="476.67178"
         x="76.37249"
         id="tspan4331"
         sodipodi:role="line">Dream</tspan></text>
    <text
       transform="matrix(0.94551858,-0.32556815,0.32556815,0.94551858,0,0)"
       sodipodi:linespacing="125%"
       id="text4335"
       y="546.41138"
       x="-27.008621"
       style="font-size:57.59999847000000273px;font-style:normal;font-weight:normal;line-height:125%;letter-spacing:0px;word-spacing:0px;fill:#ffffff;fill-opacity:1;stroke:none;font-family:Sans;stroke-width:0;stroke-miterlimit:4;stroke-dasharray:none"
       xml:space="preserve"><tspan
         y="546.41138"
         x="-27.008621"
         id="tspan4337"
         sodipodi:role="line">Team</tspan></text>
  </g>
  <flowRoot
     xml:space="preserve"
     id="flowRoot4313"
     style="fill:black;stroke:none;stroke-opacity:1;stroke-width:1px;stroke-linejoin:miter;stroke-linecap:butt;fill-opacity:1;font-family:Sans;font-style:normal;font-weight:normal;font-size:40px;line-height:125%;letter-spacing:0px;word-spacing:0px"><flowRegion
       id="flowRegion4315"><rect
         id="rect4317"
         width="203.4592"
         height="71.561508"
         x="-116.46285"
         y="520.04871" /></flowRegion><flowPara
       id="flowPara4319"></flowPara></flowRoot>  <flowRoot
     xml:space="preserve"
     id="flowRoot4321"
     style="fill:black;stroke:none;stroke-opacity:1;stroke-width:1px;stroke-linejoin:miter;stroke-linecap:butt;fill-opacity:1;font-family:Sans;font-style:normal;font-weight:normal;font-size:40px;line-height:125%;letter-spacing:0px;word-spacing:0px"><flowRegion
       id="flowRegion4323"><rect
         id="rect4325"
         width="154.34836"
         height="94.012177"
         x="-159.96103"
         y="521.4519" /></flowRegion><flowPara
       id="flowPara4327"></flowPara></flowRoot></svg>
